<svg xmlns="http://www.w3.org/2000/svg" xmlns:xlink="http://www.w3.org/1999/xlink" width="100" zoomAndPan="magnify" viewBox="0 0 75 37.5" height="50" preserveAspectRatio="xMidYMid meet" version="1.0"><defs><g/><clipPath id="3d26834929"><path d="M 52.054688 12 L 54 12 L 54 15 L 52.054688 15 Z M 52.054688 12 " clip-rule="nonzero"/></clipPath><clipPath id="7c13b7d2d8"><path d="M 52.054688 14 L 54 14 L 54 15 L 52.054688 15 Z M 52.054688 14 " clip-rule="nonzero"/></clipPath><clipPath id="71452bfaaf"><path d="M 52.054688 14 L 53 14 L 53 16.207031 L 52.054688 16.207031 Z M 52.054688 14 " clip-rule="nonzero"/></clipPath><clipPath id="c23c616950"><path d="M 52.054688 11.023438 L 63 11.023438 L 63 16 L 52.054688 16 Z M 52.054688 11.023438 " clip-rule="nonzero"/></clipPath></defs><g clip-path="url(#3d26834929)"><path fill="#e6b800" d="M 53.117188 12.34375 C 53.207031 12.753906 53.203125 13.144531 53.160156 13.476562 C 53.09375 14.003906 52.910156 14.386719 52.824219 14.464844 L 52.691406 14.3125 C 52.753906 14.253906 52.898438 13.925781 52.960938 13.449219 C 53 13.140625 53.003906 12.773438 52.921875 12.382812 Z M 53.117188 12.34375 " fill-opacity="1" fill-rule="nonzero"/></g><g clip-path="url(#7c13b7d2d8)"><path fill="#e6b800" d="M 53.046875 14.292969 C 53.046875 14.441406 52.972656 14.515625 52.824219 14.515625 C 52.671875 14.515625 52.597656 14.441406 52.597656 14.292969 C 52.597656 14.144531 52.671875 14.070312 52.824219 14.070312 C 52.972656 14.070312 53.046875 14.144531 53.046875 14.292969 Z M 53.046875 14.292969 " fill-opacity="1" fill-rule="nonzero"/></g><g clip-path="url(#71452bfaaf)"><path fill="#e6b800" d="M 52.683594 14.355469 C 52.683594 14.355469 52.238281 14.910156 52.085938 15.914062 C 52.054688 16.132812 52.367188 16.425781 52.640625 16.300781 C 52.914062 16.179688 52.667969 15.109375 52.882812 14.46875 C 53.097656 13.828125 52.683594 14.355469 52.683594 14.355469 Z M 52.683594 14.355469 " fill-opacity="1" fill-rule="evenodd"/></g><path fill="#e6b800" d="M 54.96875 14.550781 C 55.238281 14.6875 55.566406 14.828125 55.9375 14.964844 C 56.292969 15.09375 56.691406 15.222656 57.113281 15.335938 C 57.535156 15.445312 57.941406 15.535156 58.316406 15.601562 C 58.707031 15.671875 59.0625 15.714844 59.359375 15.730469 C 59.65625 15.746094 59.898438 15.734375 60.066406 15.699219 C 60.199219 15.667969 60.28125 15.632812 60.292969 15.585938 C 60.304688 15.535156 60.257812 15.464844 60.15625 15.371094 C 60.027344 15.257812 59.828125 15.132812 59.574219 15 C 59.570312 15 59.566406 14.996094 59.558594 14.992188 C 59.453125 14.9375 59.335938 14.882812 59.214844 14.828125 C 59.023438 14.746094 58.816406 14.664062 58.59375 14.582031 C 58.234375 14.449219 57.835938 14.324219 57.414062 14.210938 C 56.992188 14.097656 56.585938 14.007812 56.210938 13.941406 C 56.210938 13.941406 56.207031 13.941406 56.207031 13.941406 C 55.957031 13.898438 55.71875 13.863281 55.5 13.84375 C 55.382812 13.828125 55.269531 13.820312 55.164062 13.816406 C 55.109375 13.8125 55.054688 13.8125 55.003906 13.808594 C 54.78125 13.804688 54.597656 13.816406 54.460938 13.847656 C 54.324219 13.875 54.246094 13.914062 54.234375 13.960938 C 54.222656 14.007812 54.269531 14.082031 54.371094 14.171875 C 54.503906 14.289062 54.707031 14.417969 54.96875 14.550781 Z M 54.96875 14.550781 " fill-opacity="1" fill-rule="evenodd"/><g clip-path="url(#c23c616950)"><path fill="#e6b800" d="M 59.1875 13.199219 C 59.488281 13.3125 59.757812 13.433594 59.988281 13.550781 C 60.265625 13.691406 60.484375 13.832031 60.628906 13.960938 C 60.789062 14.105469 60.859375 14.246094 60.828125 14.371094 L 60.738281 14.703125 L 62.945312 14.519531 L 58.578125 11.035156 L 52.066406 12.058594 L 54.234375 13.183594 L 54.378906 12.644531 C 54.410156 12.515625 54.546875 12.429688 54.757812 12.386719 C 54.941406 12.347656 55.203125 12.335938 55.515625 12.351562 C 55.800781 12.367188 56.128906 12.402344 56.488281 12.464844 C 55.769531 12.445312 55.304688 12.476562 54.796875 12.582031 C 54.664062 12.613281 54.585938 12.648438 54.574219 12.699219 L 54.417969 13.277344 L 54.308594 13.675781 C 54.363281 13.660156 54.425781 13.648438 54.488281 13.636719 C 54.535156 13.628906 54.582031 13.621094 54.632812 13.617188 C 54.757812 13.609375 54.898438 13.605469 55.054688 13.609375 C 55.089844 13.609375 55.132812 13.613281 55.171875 13.613281 C 55.484375 13.628906 55.847656 13.671875 56.242188 13.742188 C 56.242188 13.742188 56.246094 13.742188 56.246094 13.742188 C 56.625 13.808594 57.039062 13.902344 57.464844 14.015625 C 57.890625 14.128906 58.296875 14.257812 58.660156 14.390625 C 59.023438 14.523438 59.347656 14.660156 59.617188 14.796875 C 59.628906 14.800781 59.640625 14.808594 59.65625 14.816406 C 59.757812 14.867188 59.851562 14.921875 59.9375 14.972656 C 60.054688 15.042969 60.152344 15.109375 60.234375 15.175781 C 60.285156 15.21875 60.332031 15.257812 60.371094 15.300781 L 60.46875 14.929688 L 60.523438 14.722656 L 60.632812 14.320312 C 60.691406 14.105469 59.375 13.3125 59.1875 13.199219 Z M 59.1875 13.199219 " fill-opacity="1" fill-rule="evenodd"/></g><g fill="#b0b7c0" fill-opacity="1"><g transform="translate(1.004772, 23.428896)"><g><path d="M 3.53125 0.171875 C 3.070312 0.171875 2.632812 0.101562 2.21875 -0.03125 C 1.8125 -0.175781 1.445312 -0.367188 1.125 -0.609375 C 0.8125 -0.847656 0.5625 -1.117188 0.375 -1.421875 C 0.195312 -1.734375 0.109375 -2.050781 0.109375 -2.375 C 0.109375 -2.507812 0.179688 -2.65625 0.328125 -2.8125 C 0.472656 -2.976562 0.660156 -3.132812 0.890625 -3.28125 C 1.117188 -3.4375 1.351562 -3.578125 1.59375 -3.703125 C 1.84375 -3.835938 2.070312 -3.941406 2.28125 -4.015625 C 2.5 -4.085938 2.671875 -4.125 2.796875 -4.125 C 2.960938 -4.113281 3.101562 -4.050781 3.21875 -3.9375 C 3.34375 -3.832031 3.390625 -3.675781 3.359375 -3.46875 C 3.316406 -3.175781 3.285156 -2.867188 3.265625 -2.546875 C 3.242188 -2.234375 3.265625 -1.9375 3.328125 -1.65625 C 3.398438 -1.375 3.546875 -1.144531 3.765625 -0.96875 C 3.984375 -0.789062 4.304688 -0.703125 4.734375 -0.703125 C 5.015625 -0.703125 5.273438 -0.765625 5.515625 -0.890625 C 5.765625 -1.015625 5.960938 -1.191406 6.109375 -1.421875 C 6.265625 -1.648438 6.34375 -1.90625 6.34375 -2.1875 C 6.34375 -2.570312 6.242188 -2.890625 6.046875 -3.140625 C 5.859375 -3.390625 5.601562 -3.597656 5.28125 -3.765625 C 4.96875 -3.941406 4.628906 -4.085938 4.265625 -4.203125 C 3.710938 -4.367188 3.191406 -4.546875 2.703125 -4.734375 C 2.210938 -4.921875 1.78125 -5.144531 1.40625 -5.40625 C 1.03125 -5.675781 0.734375 -6.007812 0.515625 -6.40625 C 0.296875 -6.800781 0.1875 -7.289062 0.1875 -7.875 C 0.1875 -8.34375 0.273438 -8.78125 0.453125 -9.1875 C 0.640625 -9.59375 0.890625 -9.945312 1.203125 -10.25 C 1.515625 -10.5625 1.875 -10.804688 2.28125 -10.984375 C 2.695312 -11.160156 3.140625 -11.25 3.609375 -11.25 C 3.898438 -11.25 4.175781 -11.207031 4.4375 -11.125 C 4.695312 -11.050781 4.960938 -10.976562 5.234375 -10.90625 C 5.515625 -10.832031 5.820312 -10.796875 6.15625 -10.796875 C 6.414062 -10.796875 6.617188 -10.832031 6.765625 -10.90625 C 6.921875 -10.976562 7.050781 -11.050781 7.15625 -11.125 C 7.269531 -11.207031 7.378906 -11.25 7.484375 -11.25 C 7.617188 -11.25 7.703125 -11.171875 7.734375 -11.015625 C 7.765625 -10.867188 7.757812 -10.679688 7.71875 -10.453125 C 7.675781 -10.222656 7.597656 -9.972656 7.484375 -9.703125 C 7.378906 -9.441406 7.242188 -9.195312 7.078125 -8.96875 C 6.921875 -8.738281 6.742188 -8.546875 6.546875 -8.390625 C 6.347656 -8.242188 6.132812 -8.171875 5.90625 -8.171875 C 5.5 -8.171875 5.125 -8.238281 4.78125 -8.375 C 4.4375 -8.507812 4.101562 -8.664062 3.78125 -8.84375 C 3.46875 -9.019531 3.144531 -9.171875 2.8125 -9.296875 C 2.488281 -9.429688 2.140625 -9.5 1.765625 -9.5 C 1.566406 -9.5 1.394531 -9.421875 1.25 -9.265625 C 1.101562 -9.117188 1.03125 -8.941406 1.03125 -8.734375 C 1.03125 -8.429688 1.144531 -8.1875 1.375 -8 C 1.613281 -7.8125 1.914062 -7.660156 2.28125 -7.546875 C 2.65625 -7.441406 3.0625 -7.359375 3.5 -7.296875 C 3.945312 -7.242188 4.378906 -7.195312 4.796875 -7.15625 C 5.421875 -7.09375 5.96875 -6.921875 6.4375 -6.640625 C 6.90625 -6.367188 7.269531 -6.007812 7.53125 -5.5625 C 7.789062 -5.113281 7.921875 -4.609375 7.921875 -4.046875 C 7.921875 -3.546875 7.832031 -3.046875 7.65625 -2.546875 C 7.488281 -2.054688 7.226562 -1.609375 6.875 -1.203125 C 6.53125 -0.796875 6.082031 -0.460938 5.53125 -0.203125 C 4.976562 0.046875 4.3125 0.171875 3.53125 0.171875 Z M 3.53125 0.171875 "/></g></g></g><g fill="#b0b7c0" fill-opacity="1"><g transform="translate(9.207725, 23.428896)"><g><path d="M 0 -7.75 C 0.21875 -7.75 0.460938 -7.828125 0.734375 -7.984375 C 1.015625 -8.140625 1.296875 -8.332031 1.578125 -8.5625 C 1.859375 -8.800781 2.125 -9.035156 2.375 -9.265625 C 2.625 -9.492188 2.84375 -9.679688 3.03125 -9.828125 C 3.226562 -9.984375 3.367188 -10.0625 3.453125 -10.0625 C 3.597656 -10.0625 3.671875 -9.972656 3.671875 -9.796875 L 3.671875 -7.75 L 4.625 -7.75 L 4.625 -7.203125 L 3.671875 -7.203125 L 3.671875 -2.71875 C 3.671875 -2.4375 3.671875 -2.148438 3.671875 -1.859375 C 3.679688 -1.566406 3.722656 -1.304688 3.796875 -1.078125 C 3.867188 -0.859375 4.003906 -0.679688 4.203125 -0.546875 C 4.242188 -0.523438 4.285156 -0.515625 4.328125 -0.515625 C 4.378906 -0.515625 4.429688 -0.503906 4.484375 -0.484375 C 4.472656 -0.347656 4.398438 -0.226562 4.265625 -0.125 C 4.140625 -0.03125 3.988281 0.0390625 3.8125 0.09375 C 3.632812 0.144531 3.457031 0.171875 3.28125 0.171875 C 2.75 0.171875 2.320312 0.0820312 2 -0.09375 C 1.675781 -0.269531 1.429688 -0.507812 1.265625 -0.8125 C 1.097656 -1.113281 0.988281 -1.445312 0.9375 -1.8125 C 0.882812 -2.1875 0.859375 -2.5625 0.859375 -2.9375 L 0.859375 -6.484375 C 0.859375 -6.597656 0.847656 -6.707031 0.828125 -6.8125 C 0.816406 -6.925781 0.773438 -7.019531 0.703125 -7.09375 C 0.640625 -7.164062 0.519531 -7.203125 0.34375 -7.203125 L 0 -7.203125 Z M 0 -7.75 "/></g></g></g><g fill="#b0b7c0" fill-opacity="1"><g transform="translate(13.94106, 23.428896)"><g><path d="M 0.0625 -7.75 L 3.765625 -7.75 C 3.617188 -7.601562 3.515625 -7.425781 3.453125 -7.21875 C 3.398438 -7.019531 3.375 -6.765625 3.375 -6.453125 L 3.375 -2.84375 C 3.375 -2.59375 3.414062 -2.363281 3.5 -2.15625 C 3.59375 -1.957031 3.765625 -1.859375 4.015625 -1.859375 C 4.179688 -1.859375 4.335938 -1.90625 4.484375 -2 C 4.628906 -2.09375 4.75 -2.253906 4.84375 -2.484375 C 4.9375 -2.710938 4.984375 -3.03125 4.984375 -3.4375 L 4.984375 -6.453125 C 4.984375 -6.765625 4.953125 -7.019531 4.890625 -7.21875 C 4.835938 -7.425781 4.738281 -7.601562 4.59375 -7.75 L 8.3125 -7.75 C 8.164062 -7.601562 8.0625 -7.425781 8 -7.21875 C 7.945312 -7.019531 7.921875 -6.765625 7.921875 -6.453125 L 7.921875 -1.3125 C 7.921875 -0.988281 7.945312 -0.722656 8 -0.515625 C 8.0625 -0.316406 8.164062 -0.144531 8.3125 0 L 5.59375 0 C 5.351562 0 5.191406 -0.0820312 5.109375 -0.25 C 5.023438 -0.414062 4.984375 -0.640625 4.984375 -0.921875 L 4.984375 -1.109375 C 4.984375 -1.242188 4.972656 -1.320312 4.953125 -1.34375 C 4.941406 -1.363281 4.925781 -1.375 4.90625 -1.375 C 4.820312 -1.375 4.734375 -1.320312 4.640625 -1.21875 C 4.554688 -1.113281 4.457031 -0.984375 4.34375 -0.828125 C 4.226562 -0.679688 4.085938 -0.53125 3.921875 -0.375 C 3.753906 -0.21875 3.539062 -0.0859375 3.28125 0.015625 C 3.03125 0.117188 2.71875 0.171875 2.34375 0.171875 C 1.9375 0.171875 1.609375 0.09375 1.359375 -0.0625 C 1.117188 -0.226562 0.929688 -0.441406 0.796875 -0.703125 C 0.660156 -0.960938 0.566406 -1.242188 0.515625 -1.546875 C 0.472656 -1.847656 0.453125 -2.144531 0.453125 -2.4375 L 0.4375 -4.546875 L 0.4375 -6.453125 C 0.4375 -6.765625 0.410156 -7.019531 0.359375 -7.21875 C 0.304688 -7.425781 0.207031 -7.601562 0.0625 -7.75 Z M 0.0625 -7.75 "/></g></g></g><g fill="#b0b7c0" fill-opacity="1"><g transform="translate(22.365717, 23.428896)"><g><path d="M 3.40625 0.171875 C 2.75 0.171875 2.1875 -0.00390625 1.71875 -0.359375 C 1.25 -0.710938 0.890625 -1.179688 0.640625 -1.765625 C 0.398438 -2.347656 0.28125 -3 0.28125 -3.71875 C 0.28125 -4.21875 0.335938 -4.710938 0.453125 -5.203125 C 0.578125 -5.703125 0.765625 -6.15625 1.015625 -6.5625 C 1.273438 -6.96875 1.601562 -7.296875 2 -7.546875 C 2.394531 -7.796875 2.863281 -7.921875 3.40625 -7.921875 C 3.71875 -7.921875 3.976562 -7.875 4.1875 -7.78125 C 4.40625 -7.695312 4.582031 -7.597656 4.71875 -7.484375 C 4.863281 -7.367188 4.976562 -7.265625 5.0625 -7.171875 C 5.15625 -7.085938 5.222656 -7.046875 5.265625 -7.046875 C 5.296875 -7.046875 5.332031 -7.054688 5.375 -7.078125 C 5.425781 -7.109375 5.453125 -7.191406 5.453125 -7.328125 L 5.453125 -8.890625 C 5.453125 -8.929688 5.445312 -9.007812 5.4375 -9.125 C 5.425781 -9.238281 5.390625 -9.351562 5.328125 -9.46875 C 5.265625 -9.59375 5.144531 -9.679688 4.96875 -9.734375 C 4.957031 -9.742188 4.925781 -9.753906 4.875 -9.765625 C 4.832031 -9.785156 4.8125 -9.828125 4.8125 -9.890625 C 4.8125 -9.953125 4.828125 -9.988281 4.859375 -10 C 4.898438 -10.019531 4.925781 -10.03125 4.9375 -10.03125 C 5.019531 -10.070312 5.160156 -10.140625 5.359375 -10.234375 C 5.554688 -10.328125 5.78125 -10.429688 6.03125 -10.546875 C 6.289062 -10.660156 6.546875 -10.769531 6.796875 -10.875 C 7.054688 -10.976562 7.296875 -11.066406 7.515625 -11.140625 C 7.742188 -11.210938 7.921875 -11.25 8.046875 -11.25 C 8.210938 -11.25 8.3125 -11.203125 8.34375 -11.109375 C 8.375 -11.023438 8.390625 -10.925781 8.390625 -10.8125 L 8.390625 -1.3125 C 8.390625 -0.988281 8.414062 -0.722656 8.46875 -0.515625 C 8.519531 -0.316406 8.625 -0.144531 8.78125 0 L 6.0625 0 C 5.820312 0 5.660156 -0.078125 5.578125 -0.234375 C 5.492188 -0.398438 5.453125 -0.625 5.453125 -0.90625 L 5.453125 -1.015625 C 5.453125 -1.097656 5.425781 -1.125 5.375 -1.09375 C 5.332031 -1.070312 5.289062 -1.03125 5.25 -0.96875 C 5.0625 -0.65625 4.859375 -0.414062 4.640625 -0.25 C 4.429688 -0.09375 4.222656 0.015625 4.015625 0.078125 C 3.804688 0.140625 3.601562 0.171875 3.40625 0.171875 Z M 4.65625 -6.75 C 4.34375 -6.75 4.09375 -6.664062 3.90625 -6.5 C 3.71875 -6.34375 3.570312 -6.125 3.46875 -5.84375 C 3.363281 -5.570312 3.289062 -5.273438 3.25 -4.953125 C 3.21875 -4.640625 3.203125 -4.332031 3.203125 -4.03125 C 3.203125 -3.71875 3.207031 -3.394531 3.21875 -3.0625 C 3.238281 -2.726562 3.285156 -2.421875 3.359375 -2.140625 C 3.441406 -1.867188 3.570312 -1.644531 3.75 -1.46875 C 3.925781 -1.300781 4.164062 -1.21875 4.46875 -1.21875 C 4.695312 -1.21875 4.875 -1.273438 5 -1.390625 C 5.132812 -1.515625 5.234375 -1.671875 5.296875 -1.859375 C 5.359375 -2.054688 5.398438 -2.25 5.421875 -2.4375 C 5.441406 -2.632812 5.453125 -2.8125 5.453125 -2.96875 L 5.453125 -5.125 C 5.453125 -5.269531 5.441406 -5.429688 5.421875 -5.609375 C 5.398438 -5.796875 5.363281 -5.976562 5.3125 -6.15625 C 5.257812 -6.332031 5.175781 -6.472656 5.0625 -6.578125 C 4.957031 -6.691406 4.820312 -6.75 4.65625 -6.75 Z M 4.65625 -6.75 "/></g></g></g><g fill="#b0b7c0" fill-opacity="1"><g transform="translate(31.200521, 23.428896)"><g><path d="M 0.9375 -5.53125 C 0.8125 -5.988281 0.679688 -6.421875 0.546875 -6.828125 C 0.421875 -7.234375 0.238281 -7.539062 0 -7.75 L 3.875 -7.75 C 3.738281 -7.445312 3.703125 -7.109375 3.765625 -6.734375 C 3.835938 -6.359375 3.929688 -5.957031 4.046875 -5.53125 C 4.148438 -5.15625 4.253906 -4.75 4.359375 -4.3125 C 4.472656 -3.875 4.585938 -3.441406 4.703125 -3.015625 C 4.828125 -2.597656 4.945312 -2.210938 5.0625 -1.859375 C 5.1875 -1.515625 5.304688 -1.238281 5.421875 -1.03125 C 5.535156 -0.832031 5.648438 -0.734375 5.765625 -0.734375 C 5.890625 -0.734375 6.015625 -0.851562 6.140625 -1.09375 C 6.265625 -1.34375 6.363281 -1.660156 6.4375 -2.046875 C 6.519531 -2.441406 6.5625 -2.84375 6.5625 -3.25 C 6.5625 -3.820312 6.488281 -4.28125 6.34375 -4.625 C 6.207031 -4.96875 6.039062 -5.234375 5.84375 -5.421875 C 5.644531 -5.617188 5.445312 -5.769531 5.25 -5.875 C 5.0625 -5.976562 4.894531 -6.066406 4.75 -6.140625 C 4.613281 -6.210938 4.546875 -6.304688 4.546875 -6.421875 C 4.546875 -6.597656 4.625 -6.773438 4.78125 -6.953125 C 4.9375 -7.128906 5.144531 -7.289062 5.40625 -7.4375 C 5.664062 -7.582031 5.941406 -7.695312 6.234375 -7.78125 C 6.535156 -7.875 6.832031 -7.921875 7.125 -7.921875 C 7.414062 -7.921875 7.648438 -7.851562 7.828125 -7.71875 C 8.003906 -7.582031 8.128906 -7.40625 8.203125 -7.1875 C 8.285156 -6.976562 8.328125 -6.75 8.328125 -6.5 C 8.328125 -6.1875 8.257812 -5.773438 8.125 -5.265625 C 7.988281 -4.765625 7.8125 -4.195312 7.59375 -3.5625 C 7.382812 -2.9375 7.15625 -2.285156 6.90625 -1.609375 C 6.664062 -0.941406 6.4375 -0.289062 6.21875 0.34375 C 6.039062 0.769531 5.867188 1.171875 5.703125 1.546875 C 5.535156 1.929688 5.347656 2.269531 5.140625 2.5625 C 4.929688 2.851562 4.6875 3.078125 4.40625 3.234375 C 4.125 3.398438 3.78125 3.484375 3.375 3.484375 C 3.15625 3.484375 2.921875 3.453125 2.671875 3.390625 C 2.429688 3.328125 2.226562 3.242188 2.0625 3.140625 C 1.894531 3.035156 1.8125 2.9375 1.8125 2.84375 C 1.8125 2.71875 1.835938 2.566406 1.890625 2.390625 C 1.953125 2.222656 2.019531 2.03125 2.09375 1.8125 C 2.1875 1.53125 2.273438 1.269531 2.359375 1.03125 C 2.453125 0.800781 2.554688 0.6875 2.671875 0.6875 C 2.785156 0.6875 2.910156 0.71875 3.046875 0.78125 C 3.179688 0.851562 3.335938 0.925781 3.515625 1 C 3.703125 1.082031 3.921875 1.125 4.171875 1.125 C 4.515625 1.125 4.789062 1.066406 5 0.953125 C 5.207031 0.835938 5.359375 0.707031 5.453125 0.5625 C 5.554688 0.425781 5.609375 0.316406 5.609375 0.234375 C 5.609375 0.128906 5.566406 0.0625 5.484375 0.03125 C 5.398438 0.0078125 5.304688 0 5.203125 0 L 3.296875 0 C 3.066406 0 2.875 -0.0820312 2.71875 -0.25 C 2.570312 -0.414062 2.445312 -0.632812 2.34375 -0.90625 C 2.238281 -1.175781 2.144531 -1.460938 2.0625 -1.765625 C 1.988281 -2.078125 1.910156 -2.367188 1.828125 -2.640625 C 1.734375 -2.992188 1.640625 -3.304688 1.546875 -3.578125 C 1.460938 -3.859375 1.367188 -4.148438 1.265625 -4.453125 C 1.171875 -4.753906 1.0625 -5.113281 0.9375 -5.53125 Z M 0.9375 -5.53125 "/></g></g></g><g fill="#b0b7c0" fill-opacity="1"><g transform="translate(39.813623, 23.428896)"><g><path d="M 0.109375 -11.078125 L 7.859375 -11.078125 L 7.859375 -8.4375 C 7.859375 -8.289062 7.835938 -8.175781 7.796875 -8.09375 C 7.765625 -8.019531 7.695312 -7.984375 7.59375 -7.984375 C 7.507812 -7.984375 7.429688 -8.023438 7.359375 -8.109375 C 7.285156 -8.191406 7.191406 -8.289062 7.078125 -8.40625 C 6.960938 -8.519531 6.8125 -8.617188 6.625 -8.703125 C 6.4375 -8.796875 6.175781 -8.84375 5.84375 -8.84375 L 2.015625 -8.84375 C 1.753906 -8.84375 1.550781 -8.742188 1.40625 -8.546875 C 1.257812 -8.347656 1.1875 -8.144531 1.1875 -7.9375 L 1.1875 -7.25 C 1.1875 -7.207031 1.191406 -7.164062 1.203125 -7.125 C 1.222656 -7.082031 1.265625 -7.0625 1.328125 -7.0625 C 1.421875 -7.0625 1.515625 -7.097656 1.609375 -7.171875 C 1.703125 -7.242188 1.828125 -7.3125 1.984375 -7.375 C 2.148438 -7.445312 2.359375 -7.484375 2.609375 -7.484375 C 2.890625 -7.484375 3.15625 -7.4375 3.40625 -7.34375 C 3.664062 -7.25 3.914062 -7.140625 4.15625 -7.015625 C 4.40625 -6.898438 4.644531 -6.796875 4.875 -6.703125 C 5.113281 -6.609375 5.335938 -6.5625 5.546875 -6.5625 C 5.722656 -6.5625 5.859375 -6.597656 5.953125 -6.671875 C 6.046875 -6.753906 6.117188 -6.828125 6.171875 -6.890625 C 6.234375 -6.960938 6.296875 -7 6.359375 -7 C 6.441406 -7 6.507812 -6.9375 6.5625 -6.8125 C 6.613281 -6.695312 6.640625 -6.550781 6.640625 -6.375 C 6.640625 -6.1875 6.601562 -5.984375 6.53125 -5.765625 C 6.457031 -5.554688 6.34375 -5.351562 6.1875 -5.15625 C 6.039062 -4.96875 5.847656 -4.8125 5.609375 -4.6875 C 5.367188 -4.570312 5.078125 -4.515625 4.734375 -4.515625 C 4.410156 -4.515625 4.113281 -4.582031 3.84375 -4.71875 C 3.582031 -4.851562 3.34375 -5.019531 3.125 -5.21875 C 2.90625 -5.414062 2.703125 -5.613281 2.515625 -5.8125 C 2.328125 -6.007812 2.144531 -6.175781 1.96875 -6.3125 C 1.789062 -6.445312 1.609375 -6.515625 1.421875 -6.515625 C 1.367188 -6.515625 1.316406 -6.492188 1.265625 -6.453125 C 1.210938 -6.410156 1.1875 -6.335938 1.1875 -6.234375 C 1.1875 -5.742188 1.253906 -5.320312 1.390625 -4.96875 C 1.535156 -4.625 1.71875 -4.320312 1.9375 -4.0625 C 2.164062 -3.8125 2.40625 -3.582031 2.65625 -3.375 C 2.90625 -3.164062 3.144531 -2.953125 3.375 -2.734375 C 3.601562 -2.523438 3.785156 -2.289062 3.921875 -2.03125 C 4.054688 -1.78125 4.125 -1.476562 4.125 -1.125 C 4.125 -0.96875 4.097656 -0.800781 4.046875 -0.625 C 3.992188 -0.457031 3.910156 -0.3125 3.796875 -0.1875 C 3.679688 -0.0625 3.53125 0 3.34375 0 L 0.1875 0 C 0.332031 -0.144531 0.429688 -0.316406 0.484375 -0.515625 C 0.546875 -0.722656 0.578125 -0.988281 0.578125 -1.3125 L 0.578125 -9.765625 C 0.578125 -10.085938 0.546875 -10.347656 0.484375 -10.546875 C 0.429688 -10.753906 0.304688 -10.929688 0.109375 -11.078125 Z M 0.109375 -11.078125 "/></g></g></g><g fill="#b0b7c0" fill-opacity="1"><g transform="translate(47.894647, 23.428896)"><g><path d="M 0.0625 -9.734375 C 0.0390625 -9.742188 0.0078125 -9.753906 -0.03125 -9.765625 C -0.0820312 -9.785156 -0.109375 -9.828125 -0.109375 -9.890625 C -0.109375 -9.953125 -0.0859375 -9.988281 -0.046875 -10 C -0.015625 -10.019531 0.00390625 -10.03125 0.015625 -10.03125 C 0.0976562 -10.082031 0.238281 -10.148438 0.4375 -10.234375 C 0.632812 -10.328125 0.859375 -10.429688 1.109375 -10.546875 C 1.359375 -10.660156 1.613281 -10.769531 1.875 -10.875 C 2.132812 -10.976562 2.375 -11.066406 2.59375 -11.140625 C 2.820312 -11.210938 3.003906 -11.25 3.140625 -11.25 C 3.296875 -11.25 3.390625 -11.203125 3.421875 -11.109375 C 3.453125 -11.023438 3.46875 -10.925781 3.46875 -10.8125 L 3.46875 -1.3125 C 3.46875 -0.988281 3.492188 -0.722656 3.546875 -0.515625 C 3.609375 -0.316406 3.710938 -0.144531 3.859375 0 L 1.140625 0 C 0.898438 0 0.738281 -0.078125 0.65625 -0.234375 C 0.570312 -0.398438 0.53125 -0.625 0.53125 -0.90625 L 0.53125 -8.890625 C 0.53125 -8.929688 0.523438 -9.007812 0.515625 -9.125 C 0.515625 -9.25 0.484375 -9.367188 0.421875 -9.484375 C 0.359375 -9.609375 0.238281 -9.691406 0.0625 -9.734375 Z M 0.0625 -9.734375 "/></g></g></g><g fill="#b0b7c0" fill-opacity="1"><g transform="translate(51.863111, 23.428896)"><g><path d="M 1.40625 -0.96875 C 1.019531 -1.363281 0.734375 -1.804688 0.546875 -2.296875 C 0.359375 -2.785156 0.265625 -3.289062 0.265625 -3.8125 C 0.273438 -4.332031 0.378906 -4.84375 0.578125 -5.34375 C 0.785156 -5.84375 1.09375 -6.289062 1.5 -6.6875 C 1.90625 -7.09375 2.359375 -7.394531 2.859375 -7.59375 C 3.359375 -7.800781 3.867188 -7.90625 4.390625 -7.90625 C 4.890625 -7.90625 5.375 -7.8125 5.84375 -7.625 C 6.320312 -7.4375 6.753906 -7.148438 7.140625 -6.765625 C 7.515625 -6.378906 7.796875 -5.941406 7.984375 -5.453125 C 8.179688 -4.960938 8.273438 -4.457031 8.265625 -3.9375 C 8.253906 -3.414062 8.144531 -2.90625 7.9375 -2.40625 C 7.738281 -1.90625 7.441406 -1.457031 7.046875 -1.0625 C 6.640625 -0.65625 6.1875 -0.347656 5.6875 -0.140625 C 5.1875 0.0664062 4.675781 0.171875 4.15625 0.171875 C 3.65625 0.171875 3.164062 0.078125 2.6875 -0.109375 C 2.207031 -0.304688 1.78125 -0.59375 1.40625 -0.96875 Z M 3.734375 -7.328125 C 3.492188 -7.285156 3.296875 -7.09375 3.140625 -6.75 C 2.984375 -6.40625 2.890625 -5.960938 2.859375 -5.421875 C 2.828125 -4.878906 2.859375 -4.285156 2.953125 -3.640625 C 3.054688 -2.992188 3.207031 -2.414062 3.40625 -1.90625 C 3.601562 -1.40625 3.820312 -1.015625 4.0625 -0.734375 C 4.3125 -0.453125 4.554688 -0.328125 4.796875 -0.359375 C 5.035156 -0.398438 5.226562 -0.585938 5.375 -0.921875 C 5.519531 -1.265625 5.609375 -1.707031 5.640625 -2.25 C 5.679688 -2.800781 5.65625 -3.398438 5.5625 -4.046875 C 5.46875 -4.691406 5.320312 -5.265625 5.125 -5.765625 C 4.925781 -6.273438 4.703125 -6.671875 4.453125 -6.953125 C 4.210938 -7.234375 3.972656 -7.359375 3.734375 -7.328125 Z M 3.734375 -7.328125 "/></g></g></g><g fill="#b0b7c0" fill-opacity="1"><g transform="translate(60.40971, 23.428896)"><g><path d="M 0 -7.75 L 3.875 -7.75 C 3.738281 -7.445312 3.703125 -7.109375 3.765625 -6.734375 C 3.835938 -6.359375 3.929688 -5.957031 4.046875 -5.53125 C 4.148438 -5.15625 4.253906 -4.75 4.359375 -4.3125 C 4.472656 -3.875 4.585938 -3.441406 4.703125 -3.015625 C 4.828125 -2.597656 4.945312 -2.210938 5.0625 -1.859375 C 5.1875 -1.515625 5.304688 -1.238281 5.421875 -1.03125 C 5.535156 -0.832031 5.648438 -0.734375 5.765625 -0.734375 C 5.859375 -0.734375 5.957031 -0.816406 6.0625 -0.984375 C 6.175781 -1.160156 6.28125 -1.378906 6.375 -1.640625 C 6.46875 -1.910156 6.535156 -2.1875 6.578125 -2.46875 C 6.617188 -2.757812 6.613281 -3.019531 6.5625 -3.25 L 6.578125 -3.25 C 6.484375 -3.601562 6.382812 -3.945312 6.28125 -4.28125 C 6.175781 -4.625 6.050781 -5.039062 5.90625 -5.53125 C 5.78125 -5.988281 5.648438 -6.421875 5.515625 -6.828125 C 5.378906 -7.234375 5.195312 -7.539062 4.96875 -7.75 L 8.84375 -7.75 C 8.707031 -7.445312 8.671875 -7.109375 8.734375 -6.734375 C 8.804688 -6.359375 8.894531 -5.957031 9 -5.53125 C 9.101562 -5.15625 9.210938 -4.75 9.328125 -4.3125 C 9.441406 -3.875 9.554688 -3.441406 9.671875 -3.015625 C 9.785156 -2.597656 9.90625 -2.210938 10.03125 -1.859375 C 10.15625 -1.515625 10.273438 -1.238281 10.390625 -1.03125 C 10.503906 -0.832031 10.613281 -0.734375 10.71875 -0.734375 C 10.851562 -0.734375 10.976562 -0.851562 11.09375 -1.09375 C 11.21875 -1.34375 11.316406 -1.660156 11.390625 -2.046875 C 11.472656 -2.441406 11.515625 -2.84375 11.515625 -3.25 C 11.515625 -3.820312 11.445312 -4.28125 11.3125 -4.625 C 11.175781 -4.96875 11.007812 -5.234375 10.8125 -5.421875 C 10.613281 -5.617188 10.414062 -5.769531 10.21875 -5.875 C 10.019531 -5.976562 9.851562 -6.066406 9.71875 -6.140625 C 9.582031 -6.210938 9.515625 -6.304688 9.515625 -6.421875 C 9.515625 -6.597656 9.59375 -6.773438 9.75 -6.953125 C 9.90625 -7.128906 10.109375 -7.289062 10.359375 -7.4375 C 10.617188 -7.582031 10.898438 -7.695312 11.203125 -7.78125 C 11.503906 -7.875 11.800781 -7.921875 12.09375 -7.921875 C 12.382812 -7.921875 12.613281 -7.851562 12.78125 -7.71875 C 12.957031 -7.582031 13.085938 -7.40625 13.171875 -7.1875 C 13.253906 -6.976562 13.296875 -6.75 13.296875 -6.5 C 13.296875 -6.238281 13.238281 -5.894531 13.125 -5.46875 C 13.019531 -5.039062 12.878906 -4.566406 12.703125 -4.046875 C 12.523438 -3.523438 12.332031 -2.972656 12.125 -2.390625 C 11.925781 -1.816406 11.734375 -1.242188 11.546875 -0.671875 C 11.472656 -0.441406 11.382812 -0.28125 11.28125 -0.1875 C 11.1875 -0.101562 11.085938 -0.0507812 10.984375 -0.03125 C 10.878906 -0.0078125 10.773438 0 10.671875 0 L 8.25 0 C 8.03125 0 7.835938 -0.0820312 7.671875 -0.25 C 7.515625 -0.425781 7.378906 -0.644531 7.265625 -0.90625 C 7.148438 -1.175781 7.050781 -1.460938 6.96875 -1.765625 C 6.90625 -1.578125 6.835938 -1.390625 6.765625 -1.203125 C 6.703125 -1.023438 6.640625 -0.847656 6.578125 -0.671875 C 6.503906 -0.441406 6.421875 -0.28125 6.328125 -0.1875 C 6.234375 -0.101562 6.132812 -0.0507812 6.03125 -0.03125 C 5.925781 -0.0078125 5.820312 0 5.71875 0 L 3.296875 0 C 3.066406 0 2.867188 -0.0820312 2.703125 -0.25 C 2.546875 -0.414062 2.410156 -0.628906 2.296875 -0.890625 C 2.179688 -1.160156 2.082031 -1.445312 2 -1.75 C 1.925781 -2.0625 1.847656 -2.359375 1.765625 -2.640625 C 1.679688 -2.984375 1.597656 -3.296875 1.515625 -3.578125 C 1.441406 -3.859375 1.359375 -4.148438 1.265625 -4.453125 C 1.171875 -4.753906 1.0625 -5.113281 0.9375 -5.53125 C 0.8125 -5.988281 0.679688 -6.421875 0.546875 -6.828125 C 0.421875 -7.234375 0.238281 -7.539062 0 -7.75 Z M 0 -7.75 "/></g></g></g></svg>