<svg xmlns="http://www.w3.org/2000/svg" xmlns:xlink="http://www.w3.org/1999/xlink" width="100" zoomAndPan="magnify" viewBox="0 0 75 37.5" height="50" preserveAspectRatio="xMidYMid meet" version="1.0"><defs><g/><clipPath id="83ed4e4498"><path d="M 49.269531 12 L 51 12 L 51 15 L 49.269531 15 Z M 49.269531 12 " clip-rule="nonzero"/></clipPath><clipPath id="2e7e8368d1"><path d="M 49.269531 13 L 51 13 L 51 15 L 49.269531 15 Z M 49.269531 13 " clip-rule="nonzero"/></clipPath><clipPath id="8fdb6db19f"><path d="M 49.269531 13 L 50 13 L 50 15.875 L 49.269531 15.875 Z M 49.269531 13 " clip-rule="nonzero"/></clipPath><clipPath id="9f35a22c05"><path d="M 51 13 L 56 13 L 56 15.875 L 51 15.875 Z M 51 13 " clip-rule="nonzero"/></clipPath><clipPath id="ca337ef2b9"><path d="M 49.269531 11.433594 L 58.148438 11.433594 L 58.148438 15 L 49.269531 15 Z M 49.269531 11.433594 " clip-rule="nonzero"/></clipPath></defs><g clip-path="url(#83ed4e4498)"><path fill="#e6b800" d="M 50.128906 12.5 C 50.199219 12.832031 50.195312 13.148438 50.160156 13.414062 C 50.105469 13.839844 49.957031 14.148438 49.890625 14.210938 L 49.78125 14.089844 C 49.832031 14.042969 49.949219 13.777344 50 13.394531 C 50.03125 13.144531 50.035156 12.847656 49.96875 12.53125 Z M 50.128906 12.5 " fill-opacity="1" fill-rule="nonzero"/></g><g clip-path="url(#2e7e8368d1)"><path fill="#e6b800" d="M 50.070312 14.074219 C 50.070312 14.195312 50.007812 14.253906 49.886719 14.253906 C 49.769531 14.253906 49.707031 14.195312 49.707031 14.074219 C 49.707031 13.953125 49.769531 13.894531 49.886719 13.894531 C 50.007812 13.894531 50.070312 13.953125 50.070312 14.074219 Z M 50.070312 14.074219 " fill-opacity="1" fill-rule="nonzero"/></g><g clip-path="url(#8fdb6db19f)"><path fill="#e6b800" d="M 49.773438 14.125 C 49.773438 14.125 49.414062 14.574219 49.292969 15.382812 C 49.269531 15.5625 49.519531 15.796875 49.742188 15.699219 C 49.960938 15.597656 49.765625 14.734375 49.9375 14.214844 C 50.113281 13.699219 49.773438 14.125 49.773438 14.125 Z M 49.773438 14.125 " fill-opacity="1" fill-rule="evenodd"/></g><g clip-path="url(#9f35a22c05)"><path fill="#e6b800" d="M 51.621094 14.285156 C 51.839844 14.394531 52.101562 14.507812 52.402344 14.617188 C 52.691406 14.722656 53.011719 14.824219 53.355469 14.917969 C 53.695312 15.007812 54.023438 15.078125 54.328125 15.132812 C 54.640625 15.1875 54.925781 15.222656 55.171875 15.234375 C 55.40625 15.246094 55.601562 15.238281 55.742188 15.210938 C 55.847656 15.1875 55.914062 15.15625 55.921875 15.117188 C 55.933594 15.078125 55.894531 15.019531 55.8125 14.945312 C 55.707031 14.855469 55.550781 14.753906 55.34375 14.648438 C 55.339844 14.644531 55.335938 14.640625 55.328125 14.640625 C 55.242188 14.597656 55.152344 14.550781 55.050781 14.507812 C 54.898438 14.441406 54.730469 14.375 54.550781 14.308594 C 54.261719 14.203125 53.9375 14.101562 53.597656 14.007812 C 53.257812 13.917969 52.929688 13.84375 52.625 13.792969 C 52.625 13.792969 52.625 13.792969 52.621094 13.792969 C 52.417969 13.753906 52.226562 13.726562 52.050781 13.710938 C 51.957031 13.699219 51.867188 13.695312 51.78125 13.691406 C 51.734375 13.6875 51.691406 13.683594 51.648438 13.683594 C 51.472656 13.679688 51.320312 13.691406 51.210938 13.714844 C 51.101562 13.738281 51.039062 13.769531 51.027344 13.804688 C 51.019531 13.84375 51.058594 13.902344 51.140625 13.976562 C 51.246094 14.070312 51.410156 14.175781 51.621094 14.285156 Z M 51.621094 14.285156 " fill-opacity="1" fill-rule="evenodd"/></g><g clip-path="url(#ca337ef2b9)"><path fill="#e6b800" d="M 55.03125 13.191406 C 55.273438 13.285156 55.492188 13.378906 55.675781 13.476562 C 55.902344 13.589844 56.078125 13.703125 56.195312 13.804688 C 56.324219 13.921875 56.382812 14.035156 56.355469 14.140625 L 56.28125 14.40625 L 58.066406 14.257812 L 54.539062 11.441406 L 49.277344 12.269531 L 51.027344 13.179688 L 51.144531 12.742188 C 51.171875 12.640625 51.28125 12.570312 51.449219 12.535156 C 51.601562 12.503906 51.8125 12.492188 52.0625 12.507812 C 52.292969 12.519531 52.558594 12.546875 52.851562 12.597656 C 52.269531 12.582031 51.894531 12.605469 51.484375 12.695312 C 51.375 12.714844 51.3125 12.746094 51.300781 12.785156 L 51.175781 13.253906 L 51.132812 13.417969 L 51.089844 13.578125 C 51.132812 13.5625 51.183594 13.550781 51.234375 13.542969 C 51.273438 13.539062 51.308594 13.535156 51.351562 13.53125 C 51.453125 13.519531 51.566406 13.519531 51.691406 13.523438 C 51.722656 13.523438 51.753906 13.523438 51.785156 13.527344 C 52.035156 13.539062 52.332031 13.574219 52.652344 13.628906 C 52.960938 13.683594 53.292969 13.757812 53.640625 13.851562 C 53.984375 13.941406 54.308594 14.046875 54.605469 14.152344 C 54.898438 14.261719 55.15625 14.371094 55.375 14.480469 C 55.386719 14.484375 55.398438 14.492188 55.40625 14.496094 C 55.488281 14.539062 55.566406 14.582031 55.636719 14.625 C 55.730469 14.679688 55.808594 14.734375 55.875 14.789062 C 55.917969 14.820312 55.953125 14.855469 55.984375 14.886719 L 56.066406 14.585938 L 56.109375 14.421875 L 56.195312 14.097656 C 56.242188 13.921875 55.183594 13.28125 55.03125 13.191406 Z M 55.03125 13.191406 " fill-opacity="1" fill-rule="evenodd"/></g><g fill="#b0b7c0" fill-opacity="1"><g transform="translate(7.993035, 21.463816)"><g><path d="M 2.859375 0.140625 C 2.484375 0.140625 2.128906 0.0820312 1.796875 -0.03125 C 1.460938 -0.144531 1.164062 -0.296875 0.90625 -0.484375 C 0.65625 -0.679688 0.457031 -0.90625 0.3125 -1.15625 C 0.164062 -1.40625 0.09375 -1.660156 0.09375 -1.921875 C 0.09375 -2.035156 0.148438 -2.15625 0.265625 -2.28125 C 0.378906 -2.40625 0.53125 -2.53125 0.71875 -2.65625 C 0.90625 -2.789062 1.097656 -2.90625 1.296875 -3 C 1.492188 -3.101562 1.675781 -3.1875 1.84375 -3.25 C 2.019531 -3.3125 2.160156 -3.34375 2.265625 -3.34375 C 2.398438 -3.332031 2.515625 -3.28125 2.609375 -3.1875 C 2.703125 -3.101562 2.738281 -2.976562 2.71875 -2.8125 C 2.6875 -2.570312 2.660156 -2.320312 2.640625 -2.0625 C 2.628906 -1.800781 2.648438 -1.554688 2.703125 -1.328125 C 2.753906 -1.109375 2.867188 -0.925781 3.046875 -0.78125 C 3.222656 -0.632812 3.484375 -0.5625 3.828125 -0.5625 C 4.054688 -0.5625 4.269531 -0.613281 4.46875 -0.71875 C 4.664062 -0.820312 4.828125 -0.96875 4.953125 -1.15625 C 5.078125 -1.34375 5.140625 -1.550781 5.140625 -1.78125 C 5.140625 -2.082031 5.054688 -2.335938 4.890625 -2.546875 C 4.734375 -2.753906 4.53125 -2.925781 4.28125 -3.0625 C 4.03125 -3.195312 3.753906 -3.3125 3.453125 -3.40625 C 3.015625 -3.539062 2.59375 -3.679688 2.1875 -3.828125 C 1.789062 -3.984375 1.441406 -4.164062 1.140625 -4.375 C 0.835938 -4.59375 0.597656 -4.863281 0.421875 -5.1875 C 0.242188 -5.507812 0.15625 -5.90625 0.15625 -6.375 C 0.15625 -6.75 0.226562 -7.097656 0.375 -7.421875 C 0.519531 -7.753906 0.71875 -8.046875 0.96875 -8.296875 C 1.226562 -8.554688 1.523438 -8.753906 1.859375 -8.890625 C 2.191406 -9.035156 2.546875 -9.109375 2.921875 -9.109375 C 3.160156 -9.109375 3.382812 -9.078125 3.59375 -9.015625 C 3.800781 -8.953125 4.015625 -8.890625 4.234375 -8.828125 C 4.460938 -8.773438 4.710938 -8.75 4.984375 -8.75 C 5.191406 -8.75 5.359375 -8.773438 5.484375 -8.828125 C 5.609375 -8.890625 5.710938 -8.953125 5.796875 -9.015625 C 5.878906 -9.078125 5.96875 -9.109375 6.0625 -9.109375 C 6.164062 -9.109375 6.234375 -9.046875 6.265625 -8.921875 C 6.296875 -8.804688 6.289062 -8.648438 6.25 -8.453125 C 6.21875 -8.265625 6.15625 -8.066406 6.0625 -7.859375 C 5.976562 -7.648438 5.867188 -7.453125 5.734375 -7.265625 C 5.609375 -7.078125 5.460938 -6.921875 5.296875 -6.796875 C 5.140625 -6.679688 4.96875 -6.625 4.78125 -6.625 C 4.445312 -6.625 4.140625 -6.675781 3.859375 -6.78125 C 3.585938 -6.882812 3.320312 -7.007812 3.0625 -7.15625 C 2.8125 -7.300781 2.550781 -7.425781 2.28125 -7.53125 C 2.019531 -7.632812 1.738281 -7.6875 1.4375 -7.6875 C 1.269531 -7.6875 1.125 -7.625 1 -7.5 C 0.882812 -7.382812 0.828125 -7.238281 0.828125 -7.0625 C 0.828125 -6.820312 0.921875 -6.625 1.109375 -6.46875 C 1.304688 -6.320312 1.554688 -6.203125 1.859375 -6.109375 C 2.160156 -6.023438 2.488281 -5.957031 2.84375 -5.90625 C 3.195312 -5.863281 3.546875 -5.828125 3.890625 -5.796875 C 4.390625 -5.742188 4.828125 -5.601562 5.203125 -5.375 C 5.585938 -5.15625 5.882812 -4.863281 6.09375 -4.5 C 6.300781 -4.144531 6.40625 -3.738281 6.40625 -3.28125 C 6.40625 -2.875 6.335938 -2.46875 6.203125 -2.0625 C 6.066406 -1.664062 5.851562 -1.300781 5.5625 -0.96875 C 5.28125 -0.632812 4.914062 -0.363281 4.46875 -0.15625 C 4.019531 0.0390625 3.484375 0.140625 2.859375 0.140625 Z M 2.859375 0.140625 "/></g></g></g><g fill="#b0b7c0" fill-opacity="1"><g transform="translate(14.625251, 21.463816)"><g><path d="M 0 -6.28125 C 0.175781 -6.28125 0.375 -6.34375 0.59375 -6.46875 C 0.820312 -6.59375 1.046875 -6.75 1.265625 -6.9375 C 1.492188 -7.125 1.707031 -7.3125 1.90625 -7.5 C 2.113281 -7.6875 2.296875 -7.84375 2.453125 -7.96875 C 2.609375 -8.09375 2.722656 -8.15625 2.796875 -8.15625 C 2.910156 -8.15625 2.96875 -8.082031 2.96875 -7.9375 L 2.96875 -6.28125 L 3.734375 -6.28125 L 3.734375 -5.828125 L 2.96875 -5.828125 L 2.96875 -2.203125 C 2.96875 -1.972656 2.96875 -1.738281 2.96875 -1.5 C 2.976562 -1.269531 3.015625 -1.0625 3.078125 -0.875 C 3.140625 -0.6875 3.25 -0.546875 3.40625 -0.453125 C 3.4375 -0.421875 3.46875 -0.40625 3.5 -0.40625 C 3.539062 -0.40625 3.582031 -0.398438 3.625 -0.390625 C 3.613281 -0.285156 3.554688 -0.191406 3.453125 -0.109375 C 3.347656 -0.0234375 3.222656 0.0351562 3.078125 0.078125 C 2.941406 0.117188 2.800781 0.140625 2.65625 0.140625 C 2.226562 0.140625 1.882812 0.0664062 1.625 -0.078125 C 1.363281 -0.222656 1.164062 -0.414062 1.03125 -0.65625 C 0.894531 -0.894531 0.800781 -1.164062 0.75 -1.46875 C 0.707031 -1.769531 0.6875 -2.070312 0.6875 -2.375 L 0.6875 -5.25 C 0.6875 -5.34375 0.679688 -5.429688 0.671875 -5.515625 C 0.660156 -5.609375 0.628906 -5.679688 0.578125 -5.734375 C 0.523438 -5.796875 0.425781 -5.828125 0.28125 -5.828125 L 0 -5.828125 Z M 0 -6.28125 "/></g></g></g><g fill="#b0b7c0" fill-opacity="1"><g transform="translate(18.452227, 21.463816)"><g><path d="M 0.046875 -6.28125 L 3.046875 -6.28125 C 2.929688 -6.15625 2.847656 -6.007812 2.796875 -5.84375 C 2.753906 -5.6875 2.734375 -5.476562 2.734375 -5.21875 L 2.734375 -2.3125 C 2.734375 -2.101562 2.769531 -1.914062 2.84375 -1.75 C 2.914062 -1.582031 3.050781 -1.5 3.25 -1.5 C 3.382812 -1.5 3.507812 -1.535156 3.625 -1.609375 C 3.75 -1.691406 3.847656 -1.820312 3.921875 -2 C 3.992188 -2.1875 4.03125 -2.445312 4.03125 -2.78125 L 4.03125 -5.21875 C 4.03125 -5.476562 4.007812 -5.6875 3.96875 -5.84375 C 3.925781 -6.007812 3.84375 -6.15625 3.71875 -6.28125 L 6.734375 -6.28125 C 6.609375 -6.15625 6.519531 -6.007812 6.46875 -5.84375 C 6.425781 -5.6875 6.40625 -5.476562 6.40625 -5.21875 L 6.40625 -1.0625 C 6.40625 -0.800781 6.425781 -0.585938 6.46875 -0.421875 C 6.519531 -0.253906 6.609375 -0.113281 6.734375 0 L 4.53125 0 C 4.34375 0 4.210938 -0.0664062 4.140625 -0.203125 C 4.066406 -0.335938 4.03125 -0.519531 4.03125 -0.75 L 4.03125 -0.890625 C 4.03125 -1.003906 4.023438 -1.066406 4.015625 -1.078125 C 4.003906 -1.097656 3.988281 -1.109375 3.96875 -1.109375 C 3.894531 -1.109375 3.820312 -1.066406 3.75 -0.984375 C 3.6875 -0.898438 3.609375 -0.796875 3.515625 -0.671875 C 3.421875 -0.554688 3.304688 -0.429688 3.171875 -0.296875 C 3.046875 -0.171875 2.878906 -0.0664062 2.671875 0.015625 C 2.460938 0.0976562 2.207031 0.140625 1.90625 0.140625 C 1.570312 0.140625 1.304688 0.078125 1.109375 -0.046875 C 0.910156 -0.179688 0.753906 -0.351562 0.640625 -0.5625 C 0.535156 -0.78125 0.460938 -1.007812 0.421875 -1.25 C 0.390625 -1.5 0.375 -1.738281 0.375 -1.96875 L 0.359375 -3.6875 L 0.359375 -5.21875 C 0.359375 -5.476562 0.332031 -5.6875 0.28125 -5.84375 C 0.238281 -6.007812 0.160156 -6.15625 0.046875 -6.28125 Z M 0.046875 -6.28125 "/></g></g></g><g fill="#b0b7c0" fill-opacity="1"><g transform="translate(25.263694, 21.463816)"><g><path d="M 2.765625 0.140625 C 2.222656 0.140625 1.765625 0 1.390625 -0.28125 C 1.015625 -0.570312 0.722656 -0.953125 0.515625 -1.421875 C 0.316406 -1.898438 0.21875 -2.429688 0.21875 -3.015625 C 0.21875 -3.421875 0.265625 -3.820312 0.359375 -4.21875 C 0.460938 -4.625 0.617188 -4.988281 0.828125 -5.3125 C 1.035156 -5.644531 1.296875 -5.910156 1.609375 -6.109375 C 1.929688 -6.304688 2.316406 -6.40625 2.765625 -6.40625 C 3.015625 -6.40625 3.222656 -6.367188 3.390625 -6.296875 C 3.566406 -6.234375 3.707031 -6.15625 3.8125 -6.0625 C 3.925781 -5.96875 4.019531 -5.882812 4.09375 -5.8125 C 4.164062 -5.738281 4.222656 -5.703125 4.265625 -5.703125 C 4.285156 -5.703125 4.3125 -5.710938 4.34375 -5.734375 C 4.382812 -5.753906 4.40625 -5.820312 4.40625 -5.9375 L 4.40625 -7.1875 C 4.40625 -7.226562 4.398438 -7.296875 4.390625 -7.390625 C 4.390625 -7.484375 4.363281 -7.578125 4.3125 -7.671875 C 4.269531 -7.765625 4.175781 -7.835938 4.03125 -7.890625 C 4.019531 -7.890625 3.992188 -7.894531 3.953125 -7.90625 C 3.910156 -7.914062 3.890625 -7.953125 3.890625 -8.015625 C 3.890625 -8.054688 3.90625 -8.082031 3.9375 -8.09375 C 3.96875 -8.101562 3.984375 -8.113281 3.984375 -8.125 C 4.054688 -8.15625 4.171875 -8.207031 4.328125 -8.28125 C 4.492188 -8.351562 4.675781 -8.4375 4.875 -8.53125 C 5.082031 -8.625 5.289062 -8.710938 5.5 -8.796875 C 5.71875 -8.890625 5.914062 -8.960938 6.09375 -9.015625 C 6.269531 -9.078125 6.410156 -9.109375 6.515625 -9.109375 C 6.648438 -9.109375 6.726562 -9.070312 6.75 -9 C 6.78125 -8.925781 6.796875 -8.84375 6.796875 -8.75 L 6.796875 -1.0625 C 6.796875 -0.800781 6.816406 -0.585938 6.859375 -0.421875 C 6.898438 -0.253906 6.984375 -0.113281 7.109375 0 L 4.90625 0 C 4.71875 0 4.585938 -0.0625 4.515625 -0.1875 C 4.441406 -0.320312 4.40625 -0.503906 4.40625 -0.734375 L 4.40625 -0.828125 C 4.40625 -0.890625 4.382812 -0.910156 4.34375 -0.890625 C 4.3125 -0.867188 4.28125 -0.835938 4.25 -0.796875 C 4.09375 -0.535156 3.925781 -0.335938 3.75 -0.203125 C 3.582031 -0.078125 3.414062 0.0078125 3.25 0.0625 C 3.082031 0.113281 2.921875 0.140625 2.765625 0.140625 Z M 3.765625 -5.46875 C 3.515625 -5.46875 3.3125 -5.398438 3.15625 -5.265625 C 3.007812 -5.128906 2.894531 -4.953125 2.8125 -4.734375 C 2.726562 -4.515625 2.671875 -4.273438 2.640625 -4.015625 C 2.609375 -3.753906 2.59375 -3.503906 2.59375 -3.265625 C 2.59375 -3.003906 2.597656 -2.738281 2.609375 -2.46875 C 2.628906 -2.207031 2.671875 -1.960938 2.734375 -1.734375 C 2.796875 -1.515625 2.894531 -1.332031 3.03125 -1.1875 C 3.175781 -1.050781 3.375 -0.984375 3.625 -0.984375 C 3.800781 -0.984375 3.941406 -1.03125 4.046875 -1.125 C 4.148438 -1.226562 4.226562 -1.351562 4.28125 -1.5 C 4.34375 -1.65625 4.378906 -1.8125 4.390625 -1.96875 C 4.398438 -2.132812 4.40625 -2.28125 4.40625 -2.40625 L 4.40625 -4.15625 C 4.40625 -4.269531 4.398438 -4.398438 4.390625 -4.546875 C 4.378906 -4.691406 4.347656 -4.832031 4.296875 -4.96875 C 4.253906 -5.113281 4.1875 -5.234375 4.09375 -5.328125 C 4.007812 -5.421875 3.898438 -5.46875 3.765625 -5.46875 Z M 3.765625 -5.46875 "/></g></g></g><g fill="#b0b7c0" fill-opacity="1"><g transform="translate(32.406772, 21.463816)"><g><path d="M 0.765625 -4.484375 C 0.648438 -4.847656 0.539062 -5.195312 0.4375 -5.53125 C 0.332031 -5.863281 0.1875 -6.113281 0 -6.28125 L 3.140625 -6.28125 C 3.035156 -6.03125 3.007812 -5.753906 3.0625 -5.453125 C 3.113281 -5.148438 3.1875 -4.828125 3.28125 -4.484375 C 3.363281 -4.171875 3.445312 -3.835938 3.53125 -3.484375 C 3.625 -3.128906 3.71875 -2.78125 3.8125 -2.4375 C 3.90625 -2.101562 4 -1.796875 4.09375 -1.515625 C 4.195312 -1.234375 4.296875 -1.007812 4.390625 -0.84375 C 4.484375 -0.675781 4.570312 -0.59375 4.65625 -0.59375 C 4.769531 -0.59375 4.875 -0.691406 4.96875 -0.890625 C 5.070312 -1.085938 5.15625 -1.34375 5.21875 -1.65625 C 5.28125 -1.976562 5.3125 -2.304688 5.3125 -2.640625 C 5.3125 -3.097656 5.253906 -3.460938 5.140625 -3.734375 C 5.035156 -4.015625 4.898438 -4.234375 4.734375 -4.390625 C 4.578125 -4.546875 4.414062 -4.664062 4.25 -4.75 C 4.09375 -4.832031 3.957031 -4.90625 3.84375 -4.96875 C 3.738281 -5.03125 3.6875 -5.101562 3.6875 -5.1875 C 3.6875 -5.332031 3.75 -5.476562 3.875 -5.625 C 4 -5.769531 4.164062 -5.898438 4.375 -6.015625 C 4.582031 -6.140625 4.804688 -6.234375 5.046875 -6.296875 C 5.296875 -6.367188 5.535156 -6.40625 5.765625 -6.40625 C 6.003906 -6.40625 6.191406 -6.347656 6.328125 -6.234375 C 6.472656 -6.128906 6.578125 -5.988281 6.640625 -5.8125 C 6.710938 -5.644531 6.75 -5.460938 6.75 -5.265625 C 6.75 -5.015625 6.691406 -4.679688 6.578125 -4.265625 C 6.460938 -3.859375 6.316406 -3.398438 6.140625 -2.890625 C 5.972656 -2.378906 5.789062 -1.851562 5.59375 -1.3125 C 5.394531 -0.769531 5.210938 -0.238281 5.046875 0.28125 C 4.898438 0.625 4.753906 0.945312 4.609375 1.25 C 4.472656 1.5625 4.320312 1.835938 4.15625 2.078125 C 3.988281 2.316406 3.789062 2.5 3.5625 2.625 C 3.34375 2.757812 3.066406 2.828125 2.734375 2.828125 C 2.554688 2.828125 2.367188 2.796875 2.171875 2.734375 C 1.972656 2.679688 1.804688 2.613281 1.671875 2.53125 C 1.535156 2.457031 1.46875 2.378906 1.46875 2.296875 C 1.46875 2.203125 1.488281 2.082031 1.53125 1.9375 C 1.582031 1.800781 1.632812 1.644531 1.6875 1.46875 C 1.757812 1.238281 1.832031 1.03125 1.90625 0.84375 C 1.988281 0.65625 2.070312 0.5625 2.15625 0.5625 C 2.257812 0.5625 2.363281 0.585938 2.46875 0.640625 C 2.570312 0.691406 2.695312 0.75 2.84375 0.8125 C 3 0.875 3.175781 0.90625 3.375 0.90625 C 3.65625 0.90625 3.878906 0.859375 4.046875 0.765625 C 4.222656 0.671875 4.347656 0.566406 4.421875 0.453125 C 4.503906 0.335938 4.546875 0.25 4.546875 0.1875 C 4.546875 0.101562 4.507812 0.0507812 4.4375 0.03125 C 4.375 0.0078125 4.296875 0 4.203125 0 L 2.65625 0 C 2.476562 0 2.328125 -0.0664062 2.203125 -0.203125 C 2.078125 -0.335938 1.972656 -0.515625 1.890625 -0.734375 C 1.804688 -0.953125 1.734375 -1.179688 1.671875 -1.421875 C 1.609375 -1.671875 1.546875 -1.910156 1.484375 -2.140625 C 1.398438 -2.421875 1.320312 -2.671875 1.25 -2.890625 C 1.175781 -3.117188 1.101562 -3.351562 1.03125 -3.59375 C 0.957031 -3.84375 0.867188 -4.140625 0.765625 -4.484375 Z M 0.765625 -4.484375 "/></g></g></g><g fill="#b0b7c0" fill-opacity="1"><g transform="translate(39.370599, 21.463816)"><g><path d="M 0.09375 -8.96875 L 6.359375 -8.96875 L 6.359375 -6.828125 C 6.359375 -6.710938 6.34375 -6.625 6.3125 -6.5625 C 6.289062 -6.5 6.238281 -6.46875 6.15625 -6.46875 C 6.082031 -6.46875 6.015625 -6.5 5.953125 -6.5625 C 5.890625 -6.632812 5.8125 -6.71875 5.71875 -6.8125 C 5.632812 -6.90625 5.515625 -6.984375 5.359375 -7.046875 C 5.203125 -7.117188 4.992188 -7.15625 4.734375 -7.15625 L 1.625 -7.15625 C 1.414062 -7.15625 1.25 -7.078125 1.125 -6.921875 C 1.007812 -6.765625 0.953125 -6.597656 0.953125 -6.421875 L 0.953125 -5.859375 C 0.953125 -5.835938 0.957031 -5.804688 0.96875 -5.765625 C 0.988281 -5.734375 1.023438 -5.71875 1.078125 -5.71875 C 1.148438 -5.71875 1.222656 -5.742188 1.296875 -5.796875 C 1.378906 -5.859375 1.484375 -5.914062 1.609375 -5.96875 C 1.734375 -6.019531 1.898438 -6.046875 2.109375 -6.046875 C 2.335938 -6.046875 2.554688 -6.007812 2.765625 -5.9375 C 2.972656 -5.863281 3.175781 -5.78125 3.375 -5.6875 C 3.570312 -5.59375 3.765625 -5.503906 3.953125 -5.421875 C 4.140625 -5.347656 4.320312 -5.3125 4.5 -5.3125 C 4.632812 -5.3125 4.738281 -5.34375 4.8125 -5.40625 C 4.894531 -5.46875 4.957031 -5.523438 5 -5.578125 C 5.050781 -5.640625 5.097656 -5.671875 5.140625 -5.671875 C 5.210938 -5.671875 5.269531 -5.617188 5.3125 -5.515625 C 5.351562 -5.421875 5.375 -5.300781 5.375 -5.15625 C 5.375 -5.007812 5.34375 -4.847656 5.28125 -4.671875 C 5.226562 -4.492188 5.140625 -4.328125 5.015625 -4.171875 C 4.890625 -4.023438 4.726562 -3.898438 4.53125 -3.796875 C 4.34375 -3.703125 4.113281 -3.65625 3.84375 -3.65625 C 3.570312 -3.65625 3.328125 -3.707031 3.109375 -3.8125 C 2.898438 -3.925781 2.707031 -4.0625 2.53125 -4.21875 C 2.351562 -4.382812 2.1875 -4.546875 2.03125 -4.703125 C 1.882812 -4.859375 1.738281 -4.992188 1.59375 -5.109375 C 1.445312 -5.222656 1.300781 -5.28125 1.15625 -5.28125 C 1.113281 -5.28125 1.066406 -5.257812 1.015625 -5.21875 C 0.972656 -5.1875 0.953125 -5.128906 0.953125 -5.046875 C 0.953125 -4.648438 1.007812 -4.3125 1.125 -4.03125 C 1.238281 -3.75 1.382812 -3.503906 1.5625 -3.296875 C 1.75 -3.085938 1.941406 -2.894531 2.140625 -2.71875 C 2.347656 -2.550781 2.539062 -2.382812 2.71875 -2.21875 C 2.90625 -2.050781 3.054688 -1.863281 3.171875 -1.65625 C 3.285156 -1.445312 3.34375 -1.195312 3.34375 -0.90625 C 3.34375 -0.78125 3.316406 -0.648438 3.265625 -0.515625 C 3.222656 -0.378906 3.15625 -0.257812 3.0625 -0.15625 C 2.976562 -0.0507812 2.859375 0 2.703125 0 L 0.15625 0 C 0.269531 -0.113281 0.347656 -0.253906 0.390625 -0.421875 C 0.441406 -0.585938 0.46875 -0.800781 0.46875 -1.0625 L 0.46875 -7.90625 C 0.46875 -8.164062 0.441406 -8.378906 0.390625 -8.546875 C 0.347656 -8.710938 0.25 -8.851562 0.09375 -8.96875 Z M 0.09375 -8.96875 "/></g></g></g><g fill="#b0b7c0" fill-opacity="1"><g transform="translate(45.904234, 21.463816)"><g><path d="M 0.046875 -7.890625 C 0.0351562 -7.890625 0.0078125 -7.894531 -0.03125 -7.90625 C -0.0703125 -7.914062 -0.09375 -7.953125 -0.09375 -8.015625 C -0.09375 -8.054688 -0.078125 -8.082031 -0.046875 -8.09375 C -0.015625 -8.101562 0.00390625 -8.113281 0.015625 -8.125 C 0.078125 -8.15625 0.1875 -8.207031 0.34375 -8.28125 C 0.507812 -8.363281 0.691406 -8.453125 0.890625 -8.546875 C 1.097656 -8.640625 1.304688 -8.726562 1.515625 -8.8125 C 1.734375 -8.894531 1.929688 -8.960938 2.109375 -9.015625 C 2.285156 -9.078125 2.425781 -9.109375 2.53125 -9.109375 C 2.664062 -9.109375 2.742188 -9.070312 2.765625 -9 C 2.796875 -8.925781 2.8125 -8.84375 2.8125 -8.75 L 2.8125 -1.0625 C 2.8125 -0.800781 2.832031 -0.585938 2.875 -0.421875 C 2.914062 -0.253906 3 -0.113281 3.125 0 L 0.921875 0 C 0.734375 0 0.601562 -0.0625 0.53125 -0.1875 C 0.46875 -0.320312 0.4375 -0.503906 0.4375 -0.734375 L 0.4375 -7.1875 C 0.4375 -7.226562 0.429688 -7.296875 0.421875 -7.390625 C 0.421875 -7.484375 0.394531 -7.578125 0.34375 -7.671875 C 0.289062 -7.773438 0.191406 -7.847656 0.046875 -7.890625 Z M 0.046875 -7.890625 "/></g></g></g><g fill="#b0b7c0" fill-opacity="1"><g transform="translate(49.1128, 21.463816)"><g><path d="M 1.140625 -0.796875 C 0.828125 -1.109375 0.59375 -1.460938 0.4375 -1.859375 C 0.289062 -2.253906 0.21875 -2.660156 0.21875 -3.078125 C 0.226562 -3.503906 0.3125 -3.921875 0.46875 -4.328125 C 0.632812 -4.734375 0.878906 -5.097656 1.203125 -5.421875 C 1.535156 -5.742188 1.90625 -5.988281 2.3125 -6.15625 C 2.71875 -6.320312 3.128906 -6.40625 3.546875 -6.40625 C 3.953125 -6.40625 4.347656 -6.328125 4.734375 -6.171875 C 5.117188 -6.023438 5.46875 -5.796875 5.78125 -5.484375 C 6.09375 -5.171875 6.320312 -4.816406 6.46875 -4.421875 C 6.625 -4.023438 6.695312 -3.613281 6.6875 -3.1875 C 6.6875 -2.769531 6.601562 -2.359375 6.4375 -1.953125 C 6.269531 -1.546875 6.023438 -1.179688 5.703125 -0.859375 C 5.367188 -0.535156 5 -0.285156 4.59375 -0.109375 C 4.1875 0.0546875 3.773438 0.140625 3.359375 0.140625 C 2.953125 0.140625 2.554688 0.0625 2.171875 -0.09375 C 1.785156 -0.25 1.441406 -0.484375 1.140625 -0.796875 Z M 3.015625 -5.921875 C 2.816406 -5.898438 2.65625 -5.75 2.53125 -5.46875 C 2.414062 -5.1875 2.34375 -4.828125 2.3125 -4.390625 C 2.289062 -3.953125 2.316406 -3.46875 2.390625 -2.9375 C 2.472656 -2.414062 2.59375 -1.953125 2.75 -1.546875 C 2.914062 -1.140625 3.097656 -0.820312 3.296875 -0.59375 C 3.492188 -0.363281 3.691406 -0.265625 3.890625 -0.296875 C 4.078125 -0.328125 4.226562 -0.476562 4.34375 -0.75 C 4.46875 -1.03125 4.546875 -1.390625 4.578125 -1.828125 C 4.609375 -2.273438 4.582031 -2.757812 4.5 -3.28125 C 4.425781 -3.800781 4.304688 -4.265625 4.140625 -4.671875 C 3.984375 -5.085938 3.804688 -5.40625 3.609375 -5.625 C 3.410156 -5.851562 3.210938 -5.953125 3.015625 -5.921875 Z M 3.015625 -5.921875 "/></g></g></g><g fill="#b0b7c0" fill-opacity="1"><g transform="translate(56.022859, 21.463816)"><g><path d="M 0 -6.28125 L 3.140625 -6.28125 C 3.035156 -6.03125 3.007812 -5.753906 3.0625 -5.453125 C 3.113281 -5.148438 3.1875 -4.828125 3.28125 -4.484375 C 3.363281 -4.171875 3.445312 -3.835938 3.53125 -3.484375 C 3.625 -3.128906 3.71875 -2.78125 3.8125 -2.4375 C 3.90625 -2.101562 4 -1.796875 4.09375 -1.515625 C 4.195312 -1.234375 4.296875 -1.007812 4.390625 -0.84375 C 4.484375 -0.675781 4.570312 -0.59375 4.65625 -0.59375 C 4.738281 -0.59375 4.820312 -0.660156 4.90625 -0.796875 C 5 -0.941406 5.082031 -1.117188 5.15625 -1.328125 C 5.238281 -1.546875 5.296875 -1.769531 5.328125 -2 C 5.359375 -2.238281 5.351562 -2.453125 5.3125 -2.640625 L 5.328125 -2.640625 C 5.242188 -2.921875 5.160156 -3.195312 5.078125 -3.46875 C 4.992188 -3.75 4.894531 -4.085938 4.78125 -4.484375 C 4.675781 -4.847656 4.570312 -5.195312 4.46875 -5.53125 C 4.363281 -5.863281 4.210938 -6.113281 4.015625 -6.28125 L 7.15625 -6.28125 C 7.050781 -6.03125 7.023438 -5.753906 7.078125 -5.453125 C 7.128906 -5.148438 7.203125 -4.828125 7.296875 -4.484375 C 7.378906 -4.171875 7.460938 -3.835938 7.546875 -3.484375 C 7.640625 -3.128906 7.734375 -2.78125 7.828125 -2.4375 C 7.921875 -2.101562 8.015625 -1.796875 8.109375 -1.515625 C 8.210938 -1.234375 8.3125 -1.007812 8.40625 -0.84375 C 8.5 -0.675781 8.59375 -0.59375 8.6875 -0.59375 C 8.789062 -0.59375 8.890625 -0.691406 8.984375 -0.890625 C 9.085938 -1.085938 9.171875 -1.34375 9.234375 -1.65625 C 9.296875 -1.976562 9.328125 -2.304688 9.328125 -2.640625 C 9.328125 -3.097656 9.269531 -3.460938 9.15625 -3.734375 C 9.050781 -4.015625 8.914062 -4.234375 8.75 -4.390625 C 8.59375 -4.546875 8.429688 -4.664062 8.265625 -4.75 C 8.109375 -4.832031 7.972656 -4.90625 7.859375 -4.96875 C 7.753906 -5.03125 7.703125 -5.101562 7.703125 -5.1875 C 7.703125 -5.332031 7.765625 -5.476562 7.890625 -5.625 C 8.015625 -5.769531 8.179688 -5.898438 8.390625 -6.015625 C 8.597656 -6.140625 8.820312 -6.234375 9.0625 -6.296875 C 9.3125 -6.367188 9.550781 -6.40625 9.78125 -6.40625 C 10.019531 -6.40625 10.207031 -6.347656 10.34375 -6.234375 C 10.488281 -6.128906 10.59375 -5.988281 10.65625 -5.8125 C 10.726562 -5.644531 10.765625 -5.460938 10.765625 -5.265625 C 10.765625 -5.046875 10.71875 -4.765625 10.625 -4.421875 C 10.539062 -4.078125 10.425781 -3.691406 10.28125 -3.265625 C 10.144531 -2.847656 9.992188 -2.40625 9.828125 -1.9375 C 9.660156 -1.46875 9.5 -1 9.34375 -0.53125 C 9.28125 -0.351562 9.207031 -0.226562 9.125 -0.15625 C 9.050781 -0.0820312 8.972656 -0.0351562 8.890625 -0.015625 C 8.804688 -0.00390625 8.722656 0 8.640625 0 L 6.6875 0 C 6.5 0 6.335938 -0.0664062 6.203125 -0.203125 C 6.078125 -0.335938 5.96875 -0.515625 5.875 -0.734375 C 5.789062 -0.953125 5.710938 -1.179688 5.640625 -1.421875 C 5.585938 -1.273438 5.535156 -1.128906 5.484375 -0.984375 C 5.429688 -0.835938 5.378906 -0.6875 5.328125 -0.53125 C 5.265625 -0.351562 5.191406 -0.226562 5.109375 -0.15625 C 5.035156 -0.0820312 4.957031 -0.0351562 4.875 -0.015625 C 4.789062 -0.00390625 4.707031 0 4.625 0 L 2.65625 0 C 2.476562 0 2.320312 -0.0664062 2.1875 -0.203125 C 2.0625 -0.335938 1.953125 -0.507812 1.859375 -0.71875 C 1.765625 -0.9375 1.6875 -1.171875 1.625 -1.421875 C 1.5625 -1.671875 1.5 -1.910156 1.4375 -2.140625 C 1.363281 -2.421875 1.296875 -2.671875 1.234375 -2.890625 C 1.171875 -3.117188 1.101562 -3.351562 1.03125 -3.59375 C 0.957031 -3.84375 0.867188 -4.140625 0.765625 -4.484375 C 0.648438 -4.847656 0.539062 -5.195312 0.4375 -5.53125 C 0.332031 -5.863281 0.1875 -6.113281 0 -6.28125 Z M 0 -6.28125 "/></g></g></g></svg>