<svg xmlns="http://www.w3.org/2000/svg" xmlns:xlink="http://www.w3.org/1999/xlink" width="500" zoomAndPan="magnify" viewBox="0 0 375 374.999991" height="500" preserveAspectRatio="xMidYMid meet" version="1.0"><defs><g/><clipPath id="c564566b79"><path d="M 232.222656 172 L 236 172 L 236 180 L 232.222656 180 Z M 232.222656 172 " clip-rule="nonzero"/></clipPath><clipPath id="6b76e55afd"><path d="M 232.222656 162.027344 L 268.972656 162.027344 L 268.972656 177 L 232.222656 177 Z M 232.222656 162.027344 " clip-rule="nonzero"/></clipPath></defs><path fill="#e6b800" d="M 235.804688 166.476562 C 236.101562 167.871094 236.089844 169.183594 235.949219 170.292969 C 235.71875 172.070312 235.101562 173.363281 234.8125 173.621094 L 234.359375 173.113281 C 234.582031 172.914062 235.066406 171.8125 235.277344 170.207031 C 235.410156 169.164062 235.417969 167.925781 235.140625 166.613281 Z M 235.804688 166.476562 " fill-opacity="1" fill-rule="nonzero"/><path fill="#e6b800" d="M 235.5625 173.046875 C 235.5625 173.257812 235.492188 173.433594 235.34375 173.582031 C 235.195312 173.730469 235.019531 173.804688 234.808594 173.804688 C 234.601562 173.804688 234.421875 173.730469 234.273438 173.582031 C 234.128906 173.433594 234.054688 173.257812 234.054688 173.046875 C 234.054688 172.839844 234.128906 172.660156 234.273438 172.515625 C 234.421875 172.367188 234.601562 172.292969 234.808594 172.292969 C 235.019531 172.292969 235.195312 172.367188 235.34375 172.515625 C 235.492188 172.660156 235.5625 172.839844 235.5625 173.046875 Z M 235.5625 173.046875 " fill-opacity="1" fill-rule="nonzero"/><g clip-path="url(#c564566b79)"><path fill="#e6b800" d="M 234.335938 173.253906 C 234.335938 173.253906 232.835938 175.128906 232.332031 178.503906 C 232.222656 179.25 233.273438 180.234375 234.195312 179.820312 C 235.117188 179.402344 234.292969 175.796875 235.015625 173.640625 C 235.738281 171.480469 234.335938 173.253906 234.335938 173.253906 Z M 234.335938 173.253906 " fill-opacity="1" fill-rule="evenodd"/></g><path fill="#e6b800" d="M 242.039062 173.921875 C 242.941406 174.382812 244.046875 174.855469 245.296875 175.316406 C 246.5 175.753906 247.835938 176.175781 249.261719 176.558594 C 250.683594 176.9375 252.050781 177.242188 253.320312 177.460938 C 254.632812 177.691406 255.824219 177.835938 256.835938 177.886719 C 257.828125 177.9375 258.640625 177.90625 259.21875 177.78125 C 259.667969 177.6875 259.933594 177.558594 259.976562 177.398438 C 260.019531 177.242188 259.851562 176.996094 259.511719 176.6875 C 259.082031 176.300781 258.417969 175.875 257.5625 175.4375 C 257.542969 175.425781 257.523438 175.414062 257.5 175.40625 C 257.144531 175.222656 256.757812 175.039062 256.339844 174.855469 C 255.703125 174.574219 255.003906 174.292969 254.25 174.019531 C 253.046875 173.578125 251.703125 173.152344 250.277344 172.773438 C 248.859375 172.390625 247.488281 172.089844 246.222656 171.867188 C 246.21875 171.867188 246.214844 171.867188 246.214844 171.867188 C 245.363281 171.71875 244.566406 171.605469 243.835938 171.527344 C 243.4375 171.488281 243.058594 171.460938 242.703125 171.441406 C 242.511719 171.433594 242.332031 171.425781 242.152344 171.421875 C 241.410156 171.40625 240.789062 171.449219 240.324219 171.546875 C 239.871094 171.640625 239.605469 171.769531 239.5625 171.929688 C 239.519531 172.089844 239.6875 172.335938 240.027344 172.640625 C 240.46875 173.035156 241.15625 173.472656 242.039062 173.921875 Z M 242.039062 173.921875 " fill-opacity="1" fill-rule="evenodd"/><g clip-path="url(#6b76e55afd)"><path fill="#e6b800" d="M 256.25 169.359375 C 257.265625 169.75 258.175781 170.152344 258.953125 170.546875 C 259.886719 171.027344 260.625 171.496094 261.105469 171.925781 C 261.648438 172.414062 261.890625 172.886719 261.773438 173.316406 L 261.476562 174.433594 L 268.917969 173.816406 L 254.203125 162.066406 L 232.257812 165.519531 L 239.5625 169.3125 L 240.046875 167.496094 C 240.160156 167.066406 240.609375 166.777344 241.320312 166.625 C 241.953125 166.492188 242.828125 166.453125 243.878906 166.507812 C 244.839844 166.558594 245.953125 166.683594 247.164062 166.886719 C 244.738281 166.828125 243.171875 166.929688 241.464844 167.289062 C 241.011719 167.386719 240.746094 167.511719 240.703125 167.671875 L 240.179688 169.632812 L 240 170.300781 L 239.816406 170.972656 C 240 170.914062 240.203125 170.871094 240.425781 170.835938 C 240.578125 170.8125 240.738281 170.792969 240.910156 170.777344 C 241.328125 170.738281 241.800781 170.730469 242.324219 170.746094 C 242.453125 170.75 242.585938 170.753906 242.71875 170.761719 C 243.769531 170.816406 244.996094 170.960938 246.332031 171.195312 C 246.332031 171.195312 246.335938 171.195312 246.335938 171.199219 C 247.621094 171.421875 249.011719 171.730469 250.453125 172.117188 C 251.890625 172.5 253.246094 172.929688 254.472656 173.375 C 254.476562 173.378906 254.476562 173.378906 254.480469 173.378906 C 255.699219 173.824219 256.785156 174.289062 257.695312 174.742188 C 257.742188 174.765625 257.78125 174.789062 257.824219 174.808594 C 258.171875 174.988281 258.492188 175.164062 258.78125 175.335938 C 259.167969 175.570312 259.503906 175.796875 259.777344 176.019531 C 259.953125 176.164062 260.105469 176.300781 260.234375 176.441406 L 260.570312 175.1875 L 260.757812 174.492188 L 261.117188 173.144531 C 261.3125 172.417969 256.886719 169.738281 256.25 169.359375 Z M 256.25 169.359375 " fill-opacity="1" fill-rule="evenodd"/></g><g fill="#b0b7c0" fill-opacity="1"><g transform="translate(73.30664, 202.186686)"><g><path d="M 11.0625 0.515625 C 9.601562 0.515625 8.234375 0.296875 6.953125 -0.140625 C 5.671875 -0.578125 4.53125 -1.164062 3.53125 -1.90625 C 2.539062 -2.644531 1.757812 -3.492188 1.1875 -4.453125 C 0.625 -5.410156 0.34375 -6.410156 0.34375 -7.453125 C 0.34375 -7.867188 0.566406 -8.328125 1.015625 -8.828125 C 1.472656 -9.328125 2.054688 -9.816406 2.765625 -10.296875 C 3.484375 -10.785156 4.226562 -11.222656 5 -11.609375 C 5.78125 -12.003906 6.503906 -12.320312 7.171875 -12.5625 C 7.847656 -12.8125 8.367188 -12.925781 8.734375 -12.90625 C 9.273438 -12.882812 9.726562 -12.703125 10.09375 -12.359375 C 10.46875 -12.023438 10.609375 -11.523438 10.515625 -10.859375 C 10.398438 -9.953125 10.304688 -8.992188 10.234375 -7.984375 C 10.160156 -6.984375 10.226562 -6.039062 10.4375 -5.15625 C 10.644531 -4.28125 11.085938 -3.566406 11.765625 -3.015625 C 12.453125 -2.460938 13.46875 -2.1875 14.8125 -2.1875 C 15.71875 -2.1875 16.550781 -2.390625 17.3125 -2.796875 C 18.070312 -3.203125 18.6875 -3.757812 19.15625 -4.46875 C 19.632812 -5.1875 19.875 -5.988281 19.875 -6.875 C 19.875 -8.050781 19.566406 -9.035156 18.953125 -9.828125 C 18.335938 -10.628906 17.539062 -11.296875 16.5625 -11.828125 C 15.582031 -12.359375 14.515625 -12.796875 13.359375 -13.140625 C 11.640625 -13.671875 10.007812 -14.234375 8.46875 -14.828125 C 6.9375 -15.421875 5.582031 -16.132812 4.40625 -16.96875 C 3.226562 -17.800781 2.296875 -18.832031 1.609375 -20.0625 C 0.929688 -21.300781 0.59375 -22.832031 0.59375 -24.65625 C 0.59375 -26.113281 0.875 -27.476562 1.4375 -28.75 C 2.007812 -30.019531 2.785156 -31.140625 3.765625 -32.109375 C 4.742188 -33.085938 5.878906 -33.847656 7.171875 -34.390625 C 8.472656 -34.929688 9.851562 -35.203125 11.3125 -35.203125 C 12.207031 -35.203125 13.066406 -35.085938 13.890625 -34.859375 C 14.710938 -34.628906 15.550781 -34.398438 16.40625 -34.171875 C 17.257812 -33.941406 18.21875 -33.828125 19.28125 -33.828125 C 20.09375 -33.828125 20.734375 -33.941406 21.203125 -34.171875 C 21.679688 -34.398438 22.085938 -34.628906 22.421875 -34.859375 C 22.753906 -35.085938 23.097656 -35.203125 23.453125 -35.203125 C 23.867188 -35.203125 24.128906 -34.972656 24.234375 -34.515625 C 24.335938 -34.054688 24.316406 -33.460938 24.171875 -32.734375 C 24.035156 -32.003906 23.800781 -31.226562 23.46875 -30.40625 C 23.132812 -29.582031 22.710938 -28.804688 22.203125 -28.078125 C 21.691406 -27.347656 21.125 -26.75 20.5 -26.28125 C 19.875 -25.820312 19.203125 -25.59375 18.484375 -25.59375 C 17.210938 -25.59375 16.039062 -25.800781 14.96875 -26.21875 C 13.894531 -26.632812 12.859375 -27.117188 11.859375 -27.671875 C 10.867188 -28.234375 9.859375 -28.722656 8.828125 -29.140625 C 7.796875 -29.554688 6.703125 -29.765625 5.546875 -29.765625 C 4.898438 -29.765625 4.347656 -29.523438 3.890625 -29.046875 C 3.441406 -28.578125 3.21875 -28.003906 3.21875 -27.328125 C 3.21875 -26.410156 3.582031 -25.65625 4.3125 -25.0625 C 5.039062 -24.46875 5.988281 -24 7.15625 -23.65625 C 8.332031 -23.3125 9.609375 -23.046875 10.984375 -22.859375 C 12.359375 -22.671875 13.703125 -22.519531 15.015625 -22.40625 C 16.960938 -22.21875 18.671875 -21.691406 20.140625 -20.828125 C 21.609375 -19.960938 22.75 -18.828125 23.5625 -17.421875 C 24.382812 -16.023438 24.796875 -14.4375 24.796875 -12.65625 C 24.796875 -11.113281 24.53125 -9.566406 24 -8.015625 C 23.46875 -6.460938 22.648438 -5.046875 21.546875 -3.765625 C 20.453125 -2.484375 19.035156 -1.445312 17.296875 -0.65625 C 15.566406 0.125 13.488281 0.515625 11.0625 0.515625 Z M 11.0625 0.515625 "/></g></g></g><g fill="#b0b7c0" fill-opacity="1"><g transform="translate(98.97545, 202.186686)"><g><path d="M 0 -24.28125 C 0.695312 -24.28125 1.472656 -24.519531 2.328125 -25 C 3.179688 -25.488281 4.046875 -26.097656 4.921875 -26.828125 C 5.804688 -27.554688 6.640625 -28.28125 7.421875 -29 C 8.210938 -29.71875 8.90625 -30.316406 9.5 -30.796875 C 10.101562 -31.285156 10.546875 -31.53125 10.828125 -31.53125 C 11.265625 -31.53125 11.484375 -31.253906 11.484375 -30.703125 L 11.484375 -24.28125 L 14.46875 -24.28125 L 14.46875 -22.546875 L 11.484375 -22.546875 L 11.484375 -8.53125 C 11.484375 -7.632812 11.492188 -6.734375 11.515625 -5.828125 C 11.535156 -4.921875 11.660156 -4.109375 11.890625 -3.390625 C 12.128906 -2.679688 12.546875 -2.128906 13.140625 -1.734375 C 13.285156 -1.640625 13.429688 -1.59375 13.578125 -1.59375 C 13.734375 -1.59375 13.890625 -1.570312 14.046875 -1.53125 C 14.003906 -1.113281 13.78125 -0.75 13.375 -0.4375 C 12.96875 -0.125 12.484375 0.109375 11.921875 0.265625 C 11.367188 0.429688 10.816406 0.515625 10.265625 0.515625 C 8.597656 0.515625 7.257812 0.238281 6.25 -0.3125 C 5.25 -0.863281 4.488281 -1.609375 3.96875 -2.546875 C 3.445312 -3.484375 3.097656 -4.53125 2.921875 -5.6875 C 2.753906 -6.84375 2.671875 -8.007812 2.671875 -9.1875 L 2.671875 -20.328125 C 2.671875 -20.671875 2.648438 -21.015625 2.609375 -21.359375 C 2.578125 -21.710938 2.453125 -22 2.234375 -22.21875 C 2.015625 -22.4375 1.628906 -22.546875 1.078125 -22.546875 L 0 -22.546875 Z M 0 -24.28125 "/></g></g></g><g fill="#b0b7c0" fill-opacity="1"><g transform="translate(113.787045, 202.186686)"><g><path d="M 0.171875 -24.28125 L 11.796875 -24.28125 C 11.328125 -23.820312 11.003906 -23.273438 10.828125 -22.640625 C 10.660156 -22.003906 10.578125 -21.1875 10.578125 -20.1875 L 10.578125 -8.921875 C 10.578125 -8.128906 10.710938 -7.414062 10.984375 -6.78125 C 11.265625 -6.144531 11.789062 -5.828125 12.5625 -5.828125 C 13.09375 -5.828125 13.585938 -5.96875 14.046875 -6.25 C 14.515625 -6.539062 14.890625 -7.046875 15.171875 -7.765625 C 15.460938 -8.484375 15.609375 -9.476562 15.609375 -10.75 L 15.609375 -20.1875 C 15.609375 -21.1875 15.519531 -22.003906 15.34375 -22.640625 C 15.175781 -23.273438 14.859375 -23.820312 14.390625 -24.28125 L 26.015625 -24.28125 C 25.554688 -23.820312 25.238281 -23.273438 25.0625 -22.640625 C 24.882812 -22.003906 24.796875 -21.1875 24.796875 -20.1875 L 24.796875 -4.09375 C 24.796875 -3.101562 24.882812 -2.285156 25.0625 -1.640625 C 25.238281 -1.003906 25.554688 -0.457031 26.015625 0 L 17.515625 0 C 16.773438 0 16.269531 -0.257812 16 -0.78125 C 15.738281 -1.300781 15.609375 -2 15.609375 -2.875 L 15.609375 -3.46875 C 15.609375 -3.882812 15.582031 -4.125 15.53125 -4.1875 C 15.488281 -4.257812 15.429688 -4.296875 15.359375 -4.296875 C 15.085938 -4.296875 14.816406 -4.132812 14.546875 -3.8125 C 14.285156 -3.488281 13.972656 -3.085938 13.609375 -2.609375 C 13.253906 -2.140625 12.816406 -1.660156 12.296875 -1.171875 C 11.773438 -0.691406 11.113281 -0.289062 10.3125 0.03125 C 9.519531 0.351562 8.535156 0.515625 7.359375 0.515625 C 6.085938 0.515625 5.0625 0.269531 4.28125 -0.21875 C 3.507812 -0.71875 2.914062 -1.378906 2.5 -2.203125 C 2.082031 -3.023438 1.796875 -3.910156 1.640625 -4.859375 C 1.492188 -5.804688 1.421875 -6.726562 1.421875 -7.625 L 1.390625 -14.25 L 1.390625 -20.1875 C 1.390625 -21.1875 1.300781 -22.003906 1.125 -22.640625 C 0.957031 -23.273438 0.640625 -23.820312 0.171875 -24.28125 Z M 0.171875 -24.28125 "/></g></g></g><g fill="#b0b7c0" fill-opacity="1"><g transform="translate(140.149607, 202.186686)"><g><path d="M 10.6875 0.515625 C 8.601562 0.515625 6.832031 -0.03125 5.375 -1.125 C 3.914062 -2.226562 2.800781 -3.695312 2.03125 -5.53125 C 1.257812 -7.375 0.875 -9.414062 0.875 -11.65625 C 0.875 -13.226562 1.0625 -14.785156 1.4375 -16.328125 C 1.820312 -17.878906 2.410156 -19.289062 3.203125 -20.5625 C 4.003906 -21.84375 5.019531 -22.867188 6.25 -23.640625 C 7.488281 -24.410156 8.96875 -24.796875 10.6875 -24.796875 C 11.65625 -24.796875 12.46875 -24.65625 13.125 -24.375 C 13.789062 -24.101562 14.34375 -23.785156 14.78125 -23.421875 C 15.21875 -23.066406 15.570312 -22.75 15.84375 -22.46875 C 16.125 -22.195312 16.347656 -22.0625 16.515625 -22.0625 C 16.578125 -22.0625 16.679688 -22.097656 16.828125 -22.171875 C 16.984375 -22.253906 17.0625 -22.519531 17.0625 -22.96875 L 17.0625 -27.8125 C 17.0625 -27.957031 17.050781 -28.207031 17.03125 -28.5625 C 17.007812 -28.925781 16.898438 -29.289062 16.703125 -29.65625 C 16.503906 -30.03125 16.128906 -30.304688 15.578125 -30.484375 C 15.523438 -30.515625 15.421875 -30.550781 15.265625 -30.59375 C 15.117188 -30.632812 15.046875 -30.757812 15.046875 -30.96875 C 15.046875 -31.15625 15.101562 -31.269531 15.21875 -31.3125 C 15.34375 -31.363281 15.414062 -31.398438 15.4375 -31.421875 C 15.71875 -31.535156 16.160156 -31.738281 16.765625 -32.03125 C 17.378906 -32.320312 18.082031 -32.644531 18.875 -33 C 19.675781 -33.363281 20.484375 -33.710938 21.296875 -34.046875 C 22.109375 -34.378906 22.859375 -34.65625 23.546875 -34.875 C 24.242188 -35.09375 24.800781 -35.203125 25.21875 -35.203125 C 25.726562 -35.203125 26.03125 -35.0625 26.125 -34.78125 C 26.21875 -34.507812 26.265625 -34.203125 26.265625 -33.859375 L 26.265625 -4.09375 C 26.265625 -3.101562 26.347656 -2.285156 26.515625 -1.640625 C 26.691406 -1.003906 27.007812 -0.457031 27.46875 0 L 18.96875 0 C 18.226562 0 17.722656 -0.253906 17.453125 -0.765625 C 17.191406 -1.273438 17.0625 -1.96875 17.0625 -2.84375 L 17.0625 -3.1875 C 17.0625 -3.445312 16.984375 -3.535156 16.828125 -3.453125 C 16.679688 -3.367188 16.550781 -3.234375 16.4375 -3.046875 C 15.84375 -2.054688 15.210938 -1.304688 14.546875 -0.796875 C 13.890625 -0.285156 13.226562 0.0546875 12.5625 0.234375 C 11.90625 0.421875 11.28125 0.515625 10.6875 0.515625 Z M 14.5625 -21.15625 C 13.59375 -21.15625 12.8125 -20.894531 12.21875 -20.375 C 11.632812 -19.851562 11.179688 -19.164062 10.859375 -18.3125 C 10.535156 -17.457031 10.316406 -16.53125 10.203125 -15.53125 C 10.085938 -14.539062 10.03125 -13.570312 10.03125 -12.625 C 10.03125 -11.632812 10.054688 -10.617188 10.109375 -9.578125 C 10.171875 -8.535156 10.320312 -7.578125 10.5625 -6.703125 C 10.800781 -5.835938 11.191406 -5.140625 11.734375 -4.609375 C 12.285156 -4.078125 13.046875 -3.8125 14.015625 -3.8125 C 14.703125 -3.8125 15.25 -4 15.65625 -4.375 C 16.0625 -4.757812 16.367188 -5.25 16.578125 -5.84375 C 16.785156 -6.4375 16.914062 -7.035156 16.96875 -7.640625 C 17.03125 -8.253906 17.0625 -8.804688 17.0625 -9.296875 L 17.0625 -16.0625 C 17.0625 -16.5 17.03125 -17.003906 16.96875 -17.578125 C 16.914062 -18.160156 16.800781 -18.722656 16.625 -19.265625 C 16.457031 -19.804688 16.203125 -20.253906 15.859375 -20.609375 C 15.523438 -20.972656 15.09375 -21.15625 14.5625 -21.15625 Z M 14.5625 -21.15625 "/></g></g></g><g fill="#b0b7c0" fill-opacity="1"><g transform="translate(167.795602, 202.186686)"><g><path d="M 2.953125 -17.34375 C 2.535156 -18.75 2.125 -20.09375 1.71875 -21.375 C 1.3125 -22.664062 0.738281 -23.632812 0 -24.28125 L 12.140625 -24.28125 C 11.722656 -23.3125 11.617188 -22.242188 11.828125 -21.078125 C 12.035156 -19.910156 12.3125 -18.664062 12.65625 -17.34375 C 12.976562 -16.144531 13.3125 -14.863281 13.65625 -13.5 C 14.007812 -12.132812 14.367188 -10.789062 14.734375 -9.46875 C 15.109375 -8.15625 15.484375 -6.953125 15.859375 -5.859375 C 16.242188 -4.773438 16.613281 -3.910156 16.96875 -3.265625 C 17.332031 -2.617188 17.6875 -2.296875 18.03125 -2.296875 C 18.445312 -2.296875 18.847656 -2.679688 19.234375 -3.453125 C 19.617188 -4.222656 19.929688 -5.210938 20.171875 -6.421875 C 20.410156 -7.640625 20.53125 -8.898438 20.53125 -10.203125 C 20.53125 -11.984375 20.316406 -13.410156 19.890625 -14.484375 C 19.460938 -15.554688 18.9375 -16.394531 18.3125 -17 C 17.6875 -17.601562 17.066406 -18.066406 16.453125 -18.390625 C 15.847656 -18.710938 15.328125 -18.988281 14.890625 -19.21875 C 14.460938 -19.445312 14.25 -19.734375 14.25 -20.078125 C 14.25 -20.640625 14.492188 -21.195312 14.984375 -21.75 C 15.472656 -22.300781 16.117188 -22.804688 16.921875 -23.265625 C 17.734375 -23.734375 18.609375 -24.101562 19.546875 -24.375 C 20.484375 -24.65625 21.398438 -24.796875 22.296875 -24.796875 C 23.222656 -24.796875 23.957031 -24.582031 24.5 -24.15625 C 25.050781 -23.726562 25.453125 -23.175781 25.703125 -22.5 C 25.953125 -21.832031 26.078125 -21.117188 26.078125 -20.359375 C 26.078125 -19.390625 25.863281 -18.109375 25.4375 -16.515625 C 25.007812 -14.921875 24.460938 -13.140625 23.796875 -11.171875 C 23.128906 -9.203125 22.410156 -7.164062 21.640625 -5.0625 C 20.878906 -2.957031 20.164062 -0.910156 19.5 1.078125 C 18.9375 2.421875 18.390625 3.6875 17.859375 4.875 C 17.328125 6.0625 16.738281 7.113281 16.09375 8.03125 C 15.445312 8.945312 14.679688 9.65625 13.796875 10.15625 C 12.921875 10.664062 11.847656 10.921875 10.578125 10.921875 C 9.890625 10.921875 9.160156 10.816406 8.390625 10.609375 C 7.628906 10.398438 6.984375 10.140625 6.453125 9.828125 C 5.921875 9.515625 5.65625 9.195312 5.65625 8.875 C 5.65625 8.507812 5.742188 8.050781 5.921875 7.5 C 6.109375 6.957031 6.320312 6.34375 6.5625 5.65625 C 6.832031 4.78125 7.113281 3.976562 7.40625 3.25 C 7.695312 2.519531 8.015625 2.15625 8.359375 2.15625 C 8.734375 2.15625 9.125 2.265625 9.53125 2.484375 C 9.945312 2.703125 10.441406 2.925781 11.015625 3.15625 C 11.597656 3.382812 12.285156 3.5 13.078125 3.5 C 14.140625 3.5 15 3.316406 15.65625 2.953125 C 16.320312 2.597656 16.8125 2.203125 17.125 1.765625 C 17.4375 1.328125 17.59375 0.984375 17.59375 0.734375 C 17.59375 0.410156 17.457031 0.207031 17.1875 0.125 C 16.914062 0.0390625 16.609375 0 16.265625 0 L 10.296875 0 C 9.585938 0 8.992188 -0.257812 8.515625 -0.78125 C 8.046875 -1.300781 7.644531 -1.984375 7.3125 -2.828125 C 6.988281 -3.671875 6.707031 -4.570312 6.46875 -5.53125 C 6.226562 -6.488281 5.976562 -7.394531 5.71875 -8.25 C 5.414062 -9.363281 5.125 -10.351562 4.84375 -11.21875 C 4.570312 -12.082031 4.285156 -12.988281 3.984375 -13.9375 C 3.679688 -14.882812 3.335938 -16.019531 2.953125 -17.34375 Z M 2.953125 -17.34375 "/></g></g></g><g fill="#b0b7c0" fill-opacity="1"><g transform="translate(194.747844, 202.186686)"><g><path d="M 0.34375 -34.6875 L 24.59375 -34.6875 L 24.59375 -26.390625 C 24.59375 -25.953125 24.539062 -25.613281 24.4375 -25.375 C 24.332031 -25.132812 24.117188 -25.015625 23.796875 -25.015625 C 23.515625 -25.015625 23.257812 -25.144531 23.03125 -25.40625 C 22.800781 -25.675781 22.507812 -25.988281 22.15625 -26.34375 C 21.8125 -26.707031 21.335938 -27.019531 20.734375 -27.28125 C 20.140625 -27.550781 19.332031 -27.6875 18.3125 -27.6875 L 6.3125 -27.6875 C 5.476562 -27.6875 4.835938 -27.378906 4.390625 -26.765625 C 3.941406 -26.148438 3.71875 -25.507812 3.71875 -24.84375 L 3.71875 -22.6875 C 3.71875 -22.570312 3.742188 -22.445312 3.796875 -22.3125 C 3.859375 -22.1875 3.976562 -22.125 4.15625 -22.125 C 4.4375 -22.125 4.726562 -22.234375 5.03125 -22.453125 C 5.332031 -22.679688 5.726562 -22.898438 6.21875 -23.109375 C 6.71875 -23.316406 7.375 -23.421875 8.1875 -23.421875 C 9.039062 -23.421875 9.867188 -23.273438 10.671875 -22.984375 C 11.484375 -22.691406 12.269531 -22.359375 13.03125 -21.984375 C 13.800781 -21.617188 14.550781 -21.289062 15.28125 -21 C 16.007812 -20.707031 16.707031 -20.5625 17.375 -20.5625 C 17.90625 -20.5625 18.320312 -20.675781 18.625 -20.90625 C 18.925781 -21.144531 19.171875 -21.375 19.359375 -21.59375 C 19.546875 -21.8125 19.726562 -21.921875 19.90625 -21.921875 C 20.1875 -21.921875 20.398438 -21.726562 20.546875 -21.34375 C 20.703125 -20.96875 20.78125 -20.503906 20.78125 -19.953125 C 20.78125 -19.367188 20.671875 -18.738281 20.453125 -18.0625 C 20.234375 -17.394531 19.882812 -16.757812 19.40625 -16.15625 C 18.9375 -15.5625 18.320312 -15.070312 17.5625 -14.6875 C 16.8125 -14.3125 15.90625 -14.125 14.84375 -14.125 C 13.820312 -14.125 12.894531 -14.335938 12.0625 -14.765625 C 11.238281 -15.191406 10.484375 -15.71875 9.796875 -16.34375 C 9.117188 -16.96875 8.484375 -17.582031 7.890625 -18.1875 C 7.296875 -18.800781 6.722656 -19.320312 6.171875 -19.75 C 5.617188 -20.175781 5.050781 -20.390625 4.46875 -20.390625 C 4.3125 -20.390625 4.144531 -20.328125 3.96875 -20.203125 C 3.800781 -20.078125 3.71875 -19.851562 3.71875 -19.53125 C 3.71875 -17.976562 3.9375 -16.65625 4.375 -15.5625 C 4.8125 -14.476562 5.378906 -13.535156 6.078125 -12.734375 C 6.785156 -11.941406 7.53125 -11.21875 8.3125 -10.5625 C 9.101562 -9.90625 9.851562 -9.242188 10.5625 -8.578125 C 11.269531 -7.921875 11.84375 -7.1875 12.28125 -6.375 C 12.71875 -5.570312 12.9375 -4.613281 12.9375 -3.5 C 12.9375 -3.039062 12.847656 -2.535156 12.671875 -1.984375 C 12.503906 -1.441406 12.238281 -0.972656 11.875 -0.578125 C 11.519531 -0.191406 11.050781 0 10.46875 0 L 0.59375 0 C 1.050781 -0.457031 1.363281 -1.003906 1.53125 -1.640625 C 1.707031 -2.285156 1.796875 -3.101562 1.796875 -4.09375 L 1.796875 -30.59375 C 1.796875 -31.59375 1.703125 -32.410156 1.515625 -33.046875 C 1.335938 -33.679688 0.945312 -34.226562 0.34375 -34.6875 Z M 0.34375 -34.6875 "/></g></g></g><g fill="#b0b7c0" fill-opacity="1"><g transform="translate(220.035085, 202.186686)"><g><path d="M 0.171875 -30.484375 C 0.128906 -30.515625 0.0351562 -30.550781 -0.109375 -30.59375 C -0.265625 -30.632812 -0.34375 -30.757812 -0.34375 -30.96875 C -0.34375 -31.15625 -0.285156 -31.269531 -0.171875 -31.3125 C -0.0546875 -31.363281 0.0078125 -31.398438 0.03125 -31.421875 C 0.3125 -31.566406 0.757812 -31.78125 1.375 -32.0625 C 1.988281 -32.351562 2.6875 -32.675781 3.46875 -33.03125 C 4.25 -33.394531 5.050781 -33.738281 5.875 -34.0625 C 6.695312 -34.382812 7.453125 -34.65625 8.140625 -34.875 C 8.835938 -35.09375 9.394531 -35.203125 9.8125 -35.203125 C 10.320312 -35.203125 10.625 -35.0625 10.71875 -34.78125 C 10.8125 -34.507812 10.859375 -34.203125 10.859375 -33.859375 L 10.859375 -4.09375 C 10.859375 -3.101562 10.941406 -2.285156 11.109375 -1.640625 C 11.285156 -1.003906 11.609375 -0.457031 12.078125 0 L 3.578125 0 C 2.835938 0 2.332031 -0.253906 2.0625 -0.765625 C 1.800781 -1.273438 1.671875 -1.96875 1.671875 -2.84375 L 1.671875 -27.8125 C 1.671875 -27.957031 1.660156 -28.210938 1.640625 -28.578125 C 1.628906 -28.953125 1.519531 -29.328125 1.3125 -29.703125 C 1.101562 -30.085938 0.722656 -30.347656 0.171875 -30.484375 Z M 0.171875 -30.484375 "/></g></g></g><g fill="#b0b7c0" fill-opacity="1"><g transform="translate(232.45324, 202.186686)"><g><path d="M 4.40625 -3.046875 C 3.207031 -4.273438 2.3125 -5.65625 1.71875 -7.1875 C 1.125 -8.726562 0.835938 -10.3125 0.859375 -11.9375 C 0.890625 -13.570312 1.222656 -15.171875 1.859375 -16.734375 C 2.492188 -18.296875 3.4375 -19.703125 4.6875 -20.953125 C 5.957031 -22.222656 7.378906 -23.175781 8.953125 -23.8125 C 10.523438 -24.445312 12.117188 -24.765625 13.734375 -24.765625 C 15.304688 -24.765625 16.835938 -24.46875 18.328125 -23.875 C 19.816406 -23.289062 21.15625 -22.394531 22.34375 -21.1875 C 23.539062 -19.988281 24.429688 -18.617188 25.015625 -17.078125 C 25.609375 -15.546875 25.894531 -13.960938 25.875 -12.328125 C 25.851562 -10.703125 25.523438 -9.109375 24.890625 -7.546875 C 24.253906 -5.984375 23.3125 -4.578125 22.0625 -3.328125 C 20.789062 -2.054688 19.367188 -1.097656 17.796875 -0.453125 C 16.222656 0.191406 14.628906 0.515625 13.015625 0.515625 C 11.441406 0.515625 9.90625 0.222656 8.40625 -0.359375 C 6.914062 -0.953125 5.582031 -1.847656 4.40625 -3.046875 Z M 11.6875 -22.921875 C 10.925781 -22.804688 10.304688 -22.210938 9.828125 -21.140625 C 9.359375 -20.066406 9.070312 -18.679688 8.96875 -16.984375 C 8.863281 -15.285156 8.960938 -13.414062 9.265625 -11.375 C 9.585938 -9.363281 10.050781 -7.566406 10.65625 -5.984375 C 11.269531 -4.398438 11.960938 -3.164062 12.734375 -2.28125 C 13.515625 -1.40625 14.273438 -1.023438 15.015625 -1.140625 C 15.753906 -1.253906 16.351562 -1.84375 16.8125 -2.90625 C 17.28125 -3.976562 17.570312 -5.367188 17.6875 -7.078125 C 17.800781 -8.785156 17.707031 -10.660156 17.40625 -12.703125 C 17.113281 -14.710938 16.660156 -16.507812 16.046875 -18.09375 C 15.429688 -19.675781 14.738281 -20.90625 13.96875 -21.78125 C 13.207031 -22.664062 12.445312 -23.046875 11.6875 -22.921875 Z M 11.6875 -22.921875 "/></g></g></g><g fill="#b0b7c0" fill-opacity="1"><g transform="translate(259.19736, 202.186686)"><g><path d="M 0 -24.28125 L 12.140625 -24.28125 C 11.722656 -23.3125 11.617188 -22.242188 11.828125 -21.078125 C 12.035156 -19.910156 12.3125 -18.664062 12.65625 -17.34375 C 12.976562 -16.144531 13.3125 -14.863281 13.65625 -13.5 C 14.007812 -12.132812 14.367188 -10.789062 14.734375 -9.46875 C 15.109375 -8.15625 15.484375 -6.953125 15.859375 -5.859375 C 16.242188 -4.773438 16.613281 -3.910156 16.96875 -3.265625 C 17.332031 -2.617188 17.6875 -2.296875 18.03125 -2.296875 C 18.332031 -2.296875 18.65625 -2.566406 19 -3.109375 C 19.351562 -3.648438 19.671875 -4.335938 19.953125 -5.171875 C 20.242188 -6.003906 20.453125 -6.867188 20.578125 -7.765625 C 20.710938 -8.671875 20.707031 -9.484375 20.5625 -10.203125 L 20.609375 -10.203125 C 20.304688 -11.304688 19.992188 -12.382812 19.671875 -13.4375 C 19.347656 -14.488281 18.953125 -15.789062 18.484375 -17.34375 C 18.097656 -18.75 17.695312 -20.09375 17.28125 -21.375 C 16.863281 -22.664062 16.285156 -23.632812 15.546875 -24.28125 L 27.6875 -24.28125 C 27.269531 -23.3125 27.164062 -22.242188 27.375 -21.078125 C 27.582031 -19.910156 27.859375 -18.664062 28.203125 -17.34375 C 28.523438 -16.144531 28.859375 -14.863281 29.203125 -13.5 C 29.554688 -12.132812 29.914062 -10.789062 30.28125 -9.46875 C 30.65625 -8.15625 31.03125 -6.953125 31.40625 -5.859375 C 31.789062 -4.773438 32.160156 -3.910156 32.515625 -3.265625 C 32.878906 -2.617188 33.234375 -2.296875 33.578125 -2.296875 C 33.992188 -2.296875 34.390625 -2.679688 34.765625 -3.453125 C 35.148438 -4.222656 35.460938 -5.210938 35.703125 -6.421875 C 35.953125 -7.640625 36.078125 -8.898438 36.078125 -10.203125 C 36.078125 -11.984375 35.863281 -13.410156 35.4375 -14.484375 C 35.007812 -15.554688 34.484375 -16.394531 33.859375 -17 C 33.234375 -17.601562 32.613281 -18.066406 32 -18.390625 C 31.382812 -18.710938 30.863281 -18.988281 30.4375 -19.21875 C 30.007812 -19.445312 29.796875 -19.734375 29.796875 -20.078125 C 29.796875 -20.640625 30.035156 -21.195312 30.515625 -21.75 C 31.003906 -22.300781 31.65625 -22.804688 32.46875 -23.265625 C 33.28125 -23.734375 34.148438 -24.101562 35.078125 -24.375 C 36.015625 -24.65625 36.9375 -24.796875 37.84375 -24.796875 C 38.769531 -24.796875 39.503906 -24.582031 40.046875 -24.15625 C 40.585938 -23.726562 40.984375 -23.175781 41.234375 -22.5 C 41.492188 -21.832031 41.625 -21.117188 41.625 -20.359375 C 41.625 -19.523438 41.457031 -18.441406 41.125 -17.109375 C 40.789062 -15.785156 40.34375 -14.304688 39.78125 -12.671875 C 39.226562 -11.046875 38.632812 -9.320312 38 -7.5 C 37.363281 -5.6875 36.742188 -3.878906 36.140625 -2.078125 C 35.910156 -1.359375 35.644531 -0.859375 35.34375 -0.578125 C 35.039062 -0.304688 34.726562 -0.140625 34.40625 -0.078125 C 34.082031 -0.0234375 33.757812 0 33.4375 0 L 25.84375 0 C 25.144531 0 24.539062 -0.265625 24.03125 -0.796875 C 23.53125 -1.328125 23.101562 -2.015625 22.75 -2.859375 C 22.40625 -3.703125 22.09375 -4.585938 21.8125 -5.515625 C 21.601562 -4.929688 21.394531 -4.359375 21.1875 -3.796875 C 20.976562 -3.234375 20.785156 -2.660156 20.609375 -2.078125 C 20.367188 -1.359375 20.097656 -0.859375 19.796875 -0.578125 C 19.503906 -0.304688 19.195312 -0.140625 18.875 -0.078125 C 18.550781 -0.0234375 18.226562 0 17.90625 0 L 10.296875 0 C 9.585938 0 8.984375 -0.257812 8.484375 -0.78125 C 7.984375 -1.300781 7.550781 -1.976562 7.1875 -2.8125 C 6.832031 -3.644531 6.523438 -4.539062 6.265625 -5.5 C 6.015625 -6.457031 5.773438 -7.375 5.546875 -8.25 C 5.273438 -9.34375 5.015625 -10.328125 4.765625 -11.203125 C 4.523438 -12.078125 4.257812 -12.988281 3.96875 -13.9375 C 3.675781 -14.882812 3.335938 -16.019531 2.953125 -17.34375 C 2.535156 -18.75 2.125 -20.09375 1.71875 -21.375 C 1.3125 -22.664062 0.738281 -23.632812 0 -24.28125 Z M 0 -24.28125 "/></g></g></g></svg>